<svg xmlns="http://www.w3.org/2000/svg" xmlns:xlink="http://www.w3.org/1999/xlink" fill="none" version="1.1" width="377" height="620" viewBox="0 0 377 620"><defs><filter id="master_svg0_0_429" filterUnits="objectBoundingBox" color-interpolation-filters="sRGB" x="-52" y="-52" width="377" height="119"><feFlood flood-opacity="0" result="BackgroundImageFix"/><feBlend mode="normal" in="SourceGraphic" in2="BackgroundImageFix" result="shape"/><feGaussianBlur stdDeviation="13" result="effect1_foregroundBlur"/></filter><filter id="master_svg1_0_431" filterUnits="objectBoundingBox" color-interpolation-filters="sRGB" x="-22" y="-22" width="186.9998016357422" height="61"><feFlood flood-opacity="0" result="BackgroundImageFix"/><feBlend mode="normal" in="SourceGraphic" in2="BackgroundImageFix" result="shape"/><feGaussianBlur stdDeviation="5.5" result="effect1_foregroundBlur"/></filter><filter id="master_svg2_0_433" filterUnits="objectBoundingBox" color-interpolation-filters="sRGB" x="-20" y="-20" width="89.93393325805664" height="46.633399963378906"><feFlood flood-opacity="0" result="BackgroundImageFix"/><feBlend mode="normal" in="SourceGraphic" in2="BackgroundImageFix" result="shape"/><feGaussianBlur stdDeviation="5" result="effect1_foregroundBlur"/></filter><filter id="master_svg3_0_437" filterUnits="objectBoundingBox" color-interpolation-filters="sRGB" x="0" y="0" width="191.4823455810547" height="270.9383850097656"><feFlood flood-opacity="0" result="BackgroundImageFix"/><feBlend mode="normal" in="SourceGraphic" in2="BackgroundImageFix" result="shape"/><feColorMatrix in="SourceAlpha" type="matrix" result="hardAlpha" values="0 0 0 0 0 0 0 0 0 0 0 0 0 0 0 0 0 0 127 0"/><feOffset dy="-0.9328172206878662" dx="-0.9328172206878662"/><feGaussianBlur stdDeviation="5.596903324127197"/><feComposite in2="hardAlpha" operator="arithmetic" k2="-1" k3="1"/><feColorMatrix type="matrix" values="0 0 0 0 0.5958333015441895 0 0 0 0 0.977546215057373 0 0 0 0 1 0 0 0 0.44999998807907104 0"/><feBlend mode="normal" in2="shape" result="effect1_innerShadow"/><feColorMatrix in="SourceAlpha" type="matrix" result="hardAlpha" values="0 0 0 0 0 0 0 0 0 0 0 0 0 0 0 0 0 0 127 0"/><feOffset dy="0.9328172206878662" dx="-8.395355224609375"/><feGaussianBlur stdDeviation="11.660215377807617"/><feComposite in2="hardAlpha" operator="arithmetic" k2="-1" k3="1"/><feColorMatrix type="matrix" values="0 0 0 0 0.5518054962158203 0 0 0 0 0.966666579246521 0 0 0 0 0.9540950655937195 0 0 0 1 0"/><feBlend mode="normal" in2="effect1_innerShadow" result="effect2_innerShadow"/><feColorMatrix in="SourceAlpha" type="matrix" result="hardAlpha" values="0 0 0 0 0 0 0 0 0 0 0 0 0 0 0 0 0 0 127 0"/><feOffset dy="-5.596903324127197" dx="38.245506286621094"/><feGaussianBlur stdDeviation="34.51423645019531"/><feComposite in2="hardAlpha" operator="arithmetic" k2="-1" k3="1"/><feColorMatrix type="matrix" values="0 0 0 0 0.30588236451148987 0 0 0 0 0.42352941632270813 0 0 0 0 0.4274509847164154 0 0 0 1 0"/><feBlend mode="normal" in2="effect2_innerShadow" result="effect3_innerShadow"/></filter><filter id="master_svg4_0_440" filterUnits="objectBoundingBox" color-interpolation-filters="sRGB" x="-46.64086151123047" y="-46.64086151123047" width="216.81826782226562" height="236.3505859375"><feFlood flood-opacity="0" result="BackgroundImageFix"/><feBlend mode="normal" in="SourceGraphic" in2="BackgroundImageFix" result="shape"/><feGaussianBlur stdDeviation="11.660215377807617" result="effect1_foregroundBlur"/></filter><linearGradient x1="0.31858623027801514" y1="0.5019997358322144" x2="0.9717435836791992" y2="0.7041209936141968" id="master_svg5__010"><stop offset="0%" stop-color="#3D878C" stop-opacity="1"/><stop offset="100%" stop-color="#4E7C7F" stop-opacity="0"/></linearGradient><filter id="master_svg6_0_443" filterUnits="objectBoundingBox" color-interpolation-filters="sRGB" x="-19.715150594711304" y="-13.866268396377563" width="129.37033081054688" height="79.10150146484375"><feFlood flood-opacity="0" result="BackgroundImageFix"/><feColorMatrix in="SourceAlpha" type="matrix" values="0 0 0 0 0 0 0 0 0 0 0 0 0 0 0 0 0 0 127 0"/><feOffset dy="0.9328172206878662" dx="-0.9328172206878662"/><feGaussianBlur stdDeviation="0.9328172206878662"/><feColorMatrix type="matrix" values="0 0 0 0 0.17513889074325562 0 0 0 0 0.41814541816711426 0 0 0 0 0.4333333373069763 0 0 0 1 0"/><feBlend mode="normal" in2="BackgroundImageFix" result="effect1_dropShadow"/><feColorMatrix in="SourceAlpha" type="matrix" values="0 0 0 0 0 0 0 0 0 0 0 0 0 0 0 0 0 0 127 0"/><feOffset dy="1.991623878479004" dx="-1.991623878479004"/><feGaussianBlur stdDeviation="3.264860153198242"/><feColorMatrix type="matrix" values="0 0 0 0 0.2542881965637207 0 0 0 0 0.40416666865348816 0 0 0 0 0.40416666865348816 0 0 0 1 0"/><feBlend mode="normal" in2="effect1_dropShadow" result="effect2_dropShadow"/><feBlend mode="normal" in="SourceGraphic" in2="effect2_dropShadow" result="shape"/><feColorMatrix in="SourceAlpha" type="matrix" result="hardAlpha" values="0 0 0 0 0 0 0 0 0 0 0 0 0 0 0 0 0 0 127 0"/><feOffset dy="0" dx="1.991623878479004"/><feGaussianBlur stdDeviation="1.991623878479004"/><feComposite in2="hardAlpha" operator="arithmetic" k2="-1" k3="1"/><feColorMatrix type="matrix" values="0 0 0 0 1 0 0 0 0 1 0 0 0 0 1 0 0 0 0.25 0"/><feBlend mode="normal" in2="shape" result="effect3_innerShadow"/><feColorMatrix in="SourceAlpha" type="matrix" result="hardAlpha" values="0 0 0 0 0 0 0 0 0 0 0 0 0 0 0 0 0 0 127 0"/><feOffset dy="0" dx="10.953930854797363"/><feGaussianBlur stdDeviation="7.966495513916016"/><feComposite in2="hardAlpha" operator="arithmetic" k2="-1" k3="1"/><feColorMatrix type="matrix" values="0 0 0 0 0.4696875214576721 0 0 0 0 0.6775588989257812 0 0 0 0 0.6958333253860474 0 0 0 0.7300000190734863 0"/><feBlend mode="normal" in2="effect3_innerShadow" result="effect4_innerShadow"/></filter><filter id="master_svg7_0_445" filterUnits="objectBoundingBox" color-interpolation-filters="sRGB" x="0" y="0" width="11.653908729553223" height="11.653908729553223"><feFlood flood-opacity="0" result="BackgroundImageFix"/><feBlend mode="normal" in="SourceGraphic" in2="BackgroundImageFix" result="shape"/><feColorMatrix in="SourceAlpha" type="matrix" result="hardAlpha" values="0 0 0 0 0 0 0 0 0 0 0 0 0 0 0 0 0 0 127 0"/><feOffset dy="0.7283692955970764" dx="-0.7283692955970764"/><feGaussianBlur stdDeviation="0.7283692955970764"/><feComposite in2="hardAlpha" operator="arithmetic" k2="-1" k3="1"/><feColorMatrix type="matrix" values="0 0 0 0 1 0 0 0 0 1 0 0 0 0 1 0 0 0 0.5 0"/><feBlend mode="normal" in2="shape" result="effect1_innerShadow"/></filter><filter id="master_svg8_0_446" filterUnits="objectBoundingBox" color-interpolation-filters="sRGB" x="-7.283692359924316" y="-7.283692359924316" width="19.665969371795654" height="16.00704061985016"><feFlood flood-opacity="0" result="BackgroundImageFix"/><feBlend mode="normal" in="SourceGraphic" in2="BackgroundImageFix" result="shape"/><feGaussianBlur stdDeviation="1.820923089981079" result="effect1_foregroundBlur"/></filter><filter id="master_svg9_0_447" filterUnits="objectBoundingBox" color-interpolation-filters="sRGB" x="-1.4567384719848633" y="-1.4567384719848633" width="6.395681142807007" height="3.850798189640045"><feFlood flood-opacity="0" result="BackgroundImageFix"/><feBlend mode="normal" in="SourceGraphic" in2="BackgroundImageFix" result="shape"/><feGaussianBlur stdDeviation="0.3641846179962158" result="effect1_foregroundBlur"/></filter><filter id="master_svga_0_449" filterUnits="objectBoundingBox" color-interpolation-filters="sRGB" x="0" y="0" width="11.653908729553223" height="11.653908729553223"><feFlood flood-opacity="0" result="BackgroundImageFix"/><feBlend mode="normal" in="SourceGraphic" in2="BackgroundImageFix" result="shape"/><feColorMatrix in="SourceAlpha" type="matrix" result="hardAlpha" values="0 0 0 0 0 0 0 0 0 0 0 0 0 0 0 0 0 0 127 0"/><feOffset dy="0.7283692955970764" dx="-0.7283692955970764"/><feGaussianBlur stdDeviation="0.7283692955970764"/><feComposite in2="hardAlpha" operator="arithmetic" k2="-1" k3="1"/><feColorMatrix type="matrix" values="0 0 0 0 1 0 0 0 0 1 0 0 0 0 1 0 0 0 0.5 0"/><feBlend mode="normal" in2="shape" result="effect1_innerShadow"/></filter><filter id="master_svgb_0_450" filterUnits="objectBoundingBox" color-interpolation-filters="sRGB" x="-7.283692359924316" y="-7.283692359924316" width="19.665969371795654" height="16.00704061985016"><feFlood flood-opacity="0" result="BackgroundImageFix"/><feBlend mode="normal" in="SourceGraphic" in2="BackgroundImageFix" result="shape"/><feGaussianBlur stdDeviation="1.820923089981079" result="effect1_foregroundBlur"/></filter><filter id="master_svgc_0_451" filterUnits="objectBoundingBox" color-interpolation-filters="sRGB" x="-1.4567384719848633" y="-1.4567384719848633" width="6.454972267150879" height="3.6712639331817627"><feFlood flood-opacity="0" result="BackgroundImageFix"/><feBlend mode="normal" in="SourceGraphic" in2="BackgroundImageFix" result="shape"/><feGaussianBlur stdDeviation="0.3641846179962158" result="effect1_foregroundBlur"/></filter><filter id="master_svgd_0_455" filterUnits="objectBoundingBox" color-interpolation-filters="sRGB" x="-41.04395771026611" y="-45.708043813705444" width="153.9148406982422" height="108.2521743774414"><feFlood flood-opacity="0" result="BackgroundImageFix"/><feColorMatrix in="SourceAlpha" type="matrix" values="0 0 0 0 0 0 0 0 0 0 0 0 0 0 0 0 0 0 127 0"/><feOffset dy="-2.7984516620635986" dx="0"/><feGaussianBlur stdDeviation="6.996129035949707"/><feColorMatrix type="matrix" values="0 0 0 0 0.46666663885116577 0 0 0 0 0.9526882171630859 0 0 0 0 1 0 0 0 1 0"/><feBlend mode="normal" in2="BackgroundImageFix" result="effect1_dropShadow"/><feColorMatrix in="SourceAlpha" type="matrix" values="0 0 0 0 0 0 0 0 0 0 0 0 0 0 0 0 0 0 127 0"/><feOffset dy="-1.8656344413757324" dx="0"/><feGaussianBlur stdDeviation="2.332043170928955"/><feColorMatrix type="matrix" values="0 0 0 0 0.0699305534362793 0 0 0 0 0.4342319369316101 0 0 0 0 0.4416666626930237 0 0 0 1 0"/><feBlend mode="normal" in2="effect1_dropShadow" result="effect2_dropShadow"/><feBlend mode="normal" in="SourceGraphic" in2="effect2_dropShadow" result="shape"/><feColorMatrix in="SourceAlpha" type="matrix" result="hardAlpha" values="0 0 0 0 0 0 0 0 0 0 0 0 0 0 0 0 0 0 127 0"/><feOffset dy="2.7984516620635986" dx="0"/><feGaussianBlur stdDeviation="0"/><feComposite in2="hardAlpha" operator="arithmetic" k2="-1" k3="1"/><feColorMatrix type="matrix" values="0 0 0 0 0.1550000011920929 0 0 0 0 0.38310348987579346 0 0 0 0 0.4000000059604645 0 0 0 1 0"/><feBlend mode="normal" in2="shape" result="effect3_innerShadow"/><feGaussianBlur stdDeviation="0.9328172206878662" result="effect4_foregroundBlur"/></filter><filter id="master_svge_0_458" filterUnits="objectBoundingBox" color-interpolation-filters="sRGB" x="-11.193806648254395" y="-11.193806648254395" width="40.11114501953125" height="60.63311958312988"><feFlood flood-opacity="0" result="BackgroundImageFix"/><feBlend mode="normal" in="SourceGraphic" in2="BackgroundImageFix" result="shape"/><feGaussianBlur stdDeviation="2.7984516620635986" result="effect1_foregroundBlur"/></filter><filter id="master_svgf_0_461" filterUnits="objectBoundingBox" color-interpolation-filters="sRGB" x="-10.26098895072937" y="-22.38761329650879" width="52.4810848236084" height="164.4249725341797"><feFlood flood-opacity="0" result="BackgroundImageFix"/><feColorMatrix in="SourceAlpha" type="matrix" values="0 0 0 0 0 0 0 0 0 0 0 0 0 0 0 0 0 0 127 0"/><feOffset dy="-9.32817268371582" dx="2.7984516620635986"/><feGaussianBlur stdDeviation="3.264860153198242"/><feColorMatrix type="matrix" values="0 0 0 0 0.10208334028720856 0 0 0 0 0.33988094329833984 0 0 0 0 0.3499999940395355 0 0 0 1 0"/><feBlend mode="normal" in2="BackgroundImageFix" result="effect1_dropShadow"/><feBlend mode="normal" in="SourceGraphic" in2="effect1_dropShadow" result="shape"/><feColorMatrix in="SourceAlpha" type="matrix" result="hardAlpha" values="0 0 0 0 0 0 0 0 0 0 0 0 0 0 0 0 0 0 127 0"/><feOffset dy="-3.731268882751465" dx="-3.731268882751465"/><feGaussianBlur stdDeviation="2.7984516620635986"/><feComposite in2="hardAlpha" operator="arithmetic" k2="-1" k3="1"/><feColorMatrix type="matrix" values="0 0 0 0 0.21568627655506134 0 0 0 0 0.43529412150382996 0 0 0 0 0.4470588266849518 0 0 0 1 0"/><feBlend mode="normal" in2="shape" result="effect2_innerShadow"/><feColorMatrix in="SourceAlpha" type="matrix" result="hardAlpha" values="0 0 0 0 0 0 0 0 0 0 0 0 0 0 0 0 0 0 127 0"/><feOffset dy="0.9328172206878662" dx="3.731268882751465"/><feGaussianBlur stdDeviation="2.7984516620635986"/><feComposite in2="hardAlpha" operator="arithmetic" k2="-1" k3="1"/><feColorMatrix type="matrix" values="0 0 0 0 0 0 0 0 0 0 0 0 0 0 0 0 0 0 0.25 0"/><feBlend mode="normal" in2="effect2_innerShadow" result="effect3_innerShadow"/><feColorMatrix in="SourceAlpha" type="matrix" result="hardAlpha" values="0 0 0 0 0 0 0 0 0 0 0 0 0 0 0 0 0 0 127 0"/><feOffset dy="-0.9328172206878662" dx="-0.9328172206878662"/><feGaussianBlur stdDeviation="5.596903324127197"/><feComposite in2="hardAlpha" operator="arithmetic" k2="-1" k3="1"/><feColorMatrix type="matrix" values="0 0 0 0 0.5958333015441895 0 0 0 0 0.977546215057373 0 0 0 0 1 0 0 0 0.44999998807907104 0"/><feBlend mode="normal" in2="effect3_innerShadow" result="effect4_innerShadow"/><feColorMatrix in="SourceAlpha" type="matrix" result="hardAlpha" values="0 0 0 0 0 0 0 0 0 0 0 0 0 0 0 0 0 0 127 0"/><feOffset dy="-2.7984516620635986" dx="17.723527908325195"/><feGaussianBlur stdDeviation="12.12662410736084"/><feComposite in2="hardAlpha" operator="arithmetic" k2="-1" k3="1"/><feColorMatrix type="matrix" values="0 0 0 0 0.3294117748737335 0 0 0 0 0.5215686559677124 0 0 0 0 0.529411792755127 0 0 0 1 0"/><feBlend mode="normal" in2="effect4_innerShadow" result="effect5_innerShadow"/></filter><filter id="master_svgg_0_464" filterUnits="objectBoundingBox" color-interpolation-filters="sRGB" x="-14.925075054168701" y="-3.7312679290771484" width="48.13829231262207" height="149.56411743164062"><feFlood flood-opacity="0" result="BackgroundImageFix"/><feColorMatrix in="SourceAlpha" type="matrix" values="0 0 0 0 0 0 0 0 0 0 0 0 0 0 0 0 0 0 127 0"/><feOffset dy="9.32817268371582" dx="-1.8656344413757324"/><feGaussianBlur stdDeviation="3.264860153198242"/><feColorMatrix type="matrix" values="0 0 0 0 0.0894097089767456 0 0 0 0 0.41529905796051025 0 0 0 0 0.42916667461395264 0 0 0 1 0"/><feBlend mode="normal" in2="BackgroundImageFix" result="effect1_dropShadow"/><feBlend mode="normal" in="SourceGraphic" in2="effect1_dropShadow" result="shape"/><feColorMatrix in="SourceAlpha" type="matrix" result="hardAlpha" values="0 0 0 0 0 0 0 0 0 0 0 0 0 0 0 0 0 0 127 0"/><feOffset dy="0.9328172206878662" dx="3.731268882751465"/><feGaussianBlur stdDeviation="2.7984516620635986"/><feComposite in2="hardAlpha" operator="arithmetic" k2="-1" k3="1"/><feColorMatrix type="matrix" values="0 0 0 0 0.16137152910232544 0 0 0 0 0.586686909198761 0 0 0 0 0.5958333611488342 0 0 0 0.9900000095367432 0"/><feBlend mode="normal" in2="shape" result="effect2_innerShadow"/><feColorMatrix in="SourceAlpha" type="matrix" result="hardAlpha" values="0 0 0 0 0 0 0 0 0 0 0 0 0 0 0 0 0 0 127 0"/><feOffset dy="-0.9328172206878662" dx="-0.9328172206878662"/><feGaussianBlur stdDeviation="5.596903324127197"/><feComposite in2="hardAlpha" operator="arithmetic" k2="-1" k3="1"/><feColorMatrix type="matrix" values="0 0 0 0 0.5958333015441895 0 0 0 0 0.977546215057373 0 0 0 0 1 0 0 0 0.44999998807907104 0"/><feBlend mode="normal" in2="effect2_innerShadow" result="effect3_innerShadow"/><feColorMatrix in="SourceAlpha" type="matrix" result="hardAlpha" values="0 0 0 0 0 0 0 0 0 0 0 0 0 0 0 0 0 0 127 0"/><feOffset dy="-2.7984516620635986" dx="17.723527908325195"/><feGaussianBlur stdDeviation="12.12662410736084"/><feComposite in2="hardAlpha" operator="arithmetic" k2="-1" k3="1"/><feColorMatrix type="matrix" values="0 0 0 0 0.3294117748737335 0 0 0 0 0.5215686559677124 0 0 0 0 0.529411792755127 0 0 0 0.25 0"/><feBlend mode="normal" in2="effect3_innerShadow" result="effect4_innerShadow"/></filter><mask id="master_svgh_0_467"><g style="mix-blend-mode:passthrough"><path d="M67.19381412109375,172.38508681640624C68.59303412109375,169.12028681640624,68.12662412109376,160.41395681640626,68.12662412109376,158.39285281640625C81.65252412109375,153.72875681640625,93.31272412109375,203.63448681640625,87.71582412109375,218.55958681640624C85.48832412109375,224.49948681640626,62.52972412109375,206.43298681640624,62.52972412109375,198.97038681640623C62.52972412109375,191.50788681640626,66.78298412109375,173.34368681640626,67.19381412109375,172.38508681640624C67.19381412109375,172.38508681640624,67.19381412109375,172.38508681640624,67.19381412109375,172.38508681640624Z" fill="#FFFFFF" fill-opacity="1"/></g></mask><filter id="master_svgi_0_470" filterUnits="objectBoundingBox" color-interpolation-filters="sRGB" x="-22.38761329650879" y="-22.38761329650879" width="73.69258308410645" height="99.81144332885742"><feFlood flood-opacity="0" result="BackgroundImageFix"/><feBlend mode="normal" in="SourceGraphic" in2="BackgroundImageFix" result="shape"/><feGaussianBlur stdDeviation="5.596903324127197" result="effect1_foregroundBlur"/></filter><mask id="master_svgj_0_473"><g style="mix-blend-mode:passthrough" transform="matrix(-0.9878308176994324,0.15553224086761475,0.15553222596645355,0.9878308176994324,489.4168383075557,-38.29304632357753)"><path d="M262.0016162457275,250.1016521057129C258.2309262457275,220.2514521057129,263.73572624572756,164.6664521057129,268.40211624572754,194.3044521057129C272.3225362457275,219.2040521057129,274.7539362457275,215.4240521057129,274.28753624572755,240.6101521057129C273.91443624572753,260.75895210571286,279.19223624572754,291.81875210571286,282.76803624572756,304.72275210571286C278.25943624572756,307.0547521057129,268.40264624572757,311.0657521057129,265.0444862457275,308.4537521057129C260.84677404572756,305.18875210571287,268.06487624572753,298.1007521057129,262.0016162457275,250.1016521057129C262.0016162457275,250.1016521057129,262.0016162457275,250.1016521057129,262.0016162457275,250.1016521057129Z" fill="#FFFFFF" fill-opacity="1"/></g></mask><filter id="master_svgk_0_476" filterUnits="objectBoundingBox" color-interpolation-filters="sRGB" x="-7.46253776550293" y="-7.46253776550293" width="28.917333602905273" height="34.51423645019531"><feFlood flood-opacity="0" result="BackgroundImageFix"/><feBlend mode="normal" in="SourceGraphic" in2="BackgroundImageFix" result="shape"/><feGaussianBlur stdDeviation="1.8656344413757324" result="effect1_foregroundBlur"/></filter><mask id="master_svgl_0_478"><g style="mix-blend-mode:passthrough"><path d="M242.74057439115523,186.56164609375C245.45908439115524,179.52194609375,256.33314439115526,150.89364609375,257.10984439115526,171.07422609375C257.72084439115525,186.95104609375,258.3319443911552,189.46554609375,258.75394439115524,190.50154609375C269.6152443911552,223.69004609375,269.6152443911552,259.12834609375,269.6152443911552,260.53634609375C269.6152443911552,261.94424609375,252.06114439115524,258.36694609375,252.44954439115526,249.91924609375002C252.83794439115525,241.47154609375002,247.78923439115525,234.90114609375001,242.74057439115523,218.47514609375C237.69192439115525,202.04904609375,240.02207539115525,193.60134609375,242.74057439115523,186.56164609375C242.74057439115523,186.56164609375,242.74057439115523,186.56164609375,242.74057439115523,186.56164609375Z" fill="#FFFFFF" fill-opacity="1"/></g></mask><filter id="master_svgm_0_481" filterUnits="objectBoundingBox" color-interpolation-filters="sRGB" x="-14.92507553100586" y="-14.92507553100586" width="46.18813705444336" height="73.69256591796875"><feFlood flood-opacity="0" result="BackgroundImageFix"/><feBlend mode="normal" in="SourceGraphic" in2="BackgroundImageFix" result="shape"/><feGaussianBlur stdDeviation="3.731268882751465" result="effect1_foregroundBlur"/></filter><filter id="master_svgn_0_485" filterUnits="objectBoundingBox" color-interpolation-filters="sRGB" x="-13.059440612792969" y="-13.059440612792969" width="234.27102661132812" height="46.75447654724121"><feFlood flood-opacity="0" result="BackgroundImageFix"/><feBlend mode="normal" in="SourceGraphic" in2="BackgroundImageFix" result="shape"/><feGaussianBlur stdDeviation="3.264860153198242" result="effect1_foregroundBlur"/></filter><filter id="master_svgo_0_488" filterUnits="objectBoundingBox" color-interpolation-filters="sRGB" x="0" y="0" width="228.03692626953125" height="267.4725036621094"><feFlood flood-opacity="0" result="BackgroundImageFix"/><feBlend mode="normal" in="SourceGraphic" in2="BackgroundImageFix" result="shape"/><feColorMatrix in="SourceAlpha" type="matrix" result="hardAlpha" values="0 0 0 0 0 0 0 0 0 0 0 0 0 0 0 0 0 0 127 0"/><feOffset dy="0" dx="-1.8656344413757324"/><feGaussianBlur stdDeviation="2.332043170928955"/><feComposite in2="hardAlpha" operator="arithmetic" k2="-1" k3="1"/><feColorMatrix type="matrix" values="0 0 0 0 0.5478993058204651 0 0 0 0 0.682750940322876 0 0 0 0 0.8708333373069763 0 0 0 1 0"/><feBlend mode="normal" in2="shape" result="effect1_innerShadow"/><feColorMatrix in="SourceAlpha" type="matrix" result="hardAlpha" values="0 0 0 0 0 0 0 0 0 0 0 0 0 0 0 0 0 0 127 0"/><feOffset dy="0.9328172206878662" dx="2.7984516620635986"/><feGaussianBlur stdDeviation="6.06331205368042"/><feComposite in2="hardAlpha" operator="arithmetic" k2="-1" k3="1"/><feColorMatrix type="matrix" values="0 0 0 0 0.4815624952316284 0 0 0 0 0.6200851798057556 0 0 0 0 0.862500011920929 0 0 0 1 0"/><feBlend mode="normal" in2="effect1_innerShadow" result="effect2_innerShadow"/><feColorMatrix in="SourceAlpha" type="matrix" result="hardAlpha" values="0 0 0 0 0 0 0 0 0 0 0 0 0 0 0 0 0 0 127 0"/><feOffset dy="0" dx="28.917333602905273"/><feGaussianBlur stdDeviation="14.458666801452637"/><feComposite in2="hardAlpha" operator="arithmetic" k2="-1" k3="1"/><feColorMatrix type="matrix" values="0 0 0 0 0.27781248092651367 0 0 0 0 0.3766874372959137 0 0 0 0 0.5249999761581421 0 0 0 0.7799999713897705 0"/><feBlend mode="normal" in2="effect2_innerShadow" result="effect3_innerShadow"/></filter><filter id="master_svgp_0_491" filterUnits="objectBoundingBox" color-interpolation-filters="sRGB" x="0" y="0" width="228.03692626953125" height="267.4725036621094"><feFlood flood-opacity="0" result="BackgroundImageFix"/><feBlend mode="normal" in="SourceGraphic" in2="BackgroundImageFix" result="shape"/><feColorMatrix in="SourceAlpha" type="matrix" result="hardAlpha" values="0 0 0 0 0 0 0 0 0 0 0 0 0 0 0 0 0 0 127 0"/><feOffset dy="0.9328172206878662" dx="2.7984516620635986"/><feGaussianBlur stdDeviation="6.06331205368042"/><feComposite in2="hardAlpha" operator="arithmetic" k2="-1" k3="1"/><feColorMatrix type="matrix" values="0 0 0 0 0.4815624952316284 0 0 0 0 0.6200851798057556 0 0 0 0 0.862500011920929 0 0 0 1 0"/><feBlend mode="normal" in2="shape" result="effect1_innerShadow"/><feColorMatrix in="SourceAlpha" type="matrix" result="hardAlpha" values="0 0 0 0 0 0 0 0 0 0 0 0 0 0 0 0 0 0 127 0"/><feOffset dy="0" dx="28.917333602905273"/><feGaussianBlur stdDeviation="14.458666801452637"/><feComposite in2="hardAlpha" operator="arithmetic" k2="-1" k3="1"/><feColorMatrix type="matrix" values="0 0 0 0 0.27781248092651367 0 0 0 0 0.3766874372959137 0 0 0 0 0.5249999761581421 0 0 0 0.7799999713897705 0"/><feBlend mode="normal" in2="effect1_innerShadow" result="effect2_innerShadow"/></filter><mask id="master_svgq_0_491"><g style="mix-blend-mode:passthrough" filter="url(#master_svgp_0_491)"><path d="M100.6495,276.55444291015624C77.7955,278.4200829101562,73.5978,278.8864929101563,67.5345,279.81930291015624C33.0112,285.13063291015624,86.1324,395.4837329101563,95.0526,407.6157329101562C106.7128,423.47273291015625,114.1753,416.4767329101562,109.0449,445.86073291015623C102.39670000000001,483.9377329101562,125.3692,494.83373291015624,137.0294,499.96373291015624C147.62959999999998,504.62873291015626,168.279,499.4977329101563,171.077,531.2137329101563C173.75,561.5017329101563,200.927,491.10273291015625,181.338,482.70673291015623C161.749,474.31173291015625,159.262,465.4497329101563,166.413,463.5847329101563C202.793,455.65573291015625,220.05,425.33873291015624,230.311,410.87973291015624C240.572,396.42173291015627,238.706,396.8877329101563,268.09000000000003,348.38133291015623C297.474,299.8748329101563,277.885,275.62162291015625,274.62,276.55444291015624C271.355,277.48726291015623,268.09000000000003,276.55444291015624,244.77,272.8231829101563C221.449,269.0919129101562,211.188,273.28958291015624,185.07,272.8231829101563C158.951,272.3567729101562,123.5035,274.68881291015623,100.6495,276.55444291015624C100.6495,276.55444291015624,100.6495,276.55444291015624,100.6495,276.55444291015624Z" fill="#FFFFFF" fill-opacity="1"/></g></mask><filter id="master_svgr_0_494" filterUnits="objectBoundingBox" color-interpolation-filters="sRGB" x="-31.71578598022461" y="-31.71578598022461" width="213.43668365478516" height="99.08038330078125"><feFlood flood-opacity="0" result="BackgroundImageFix"/><feBlend mode="normal" in="SourceGraphic" in2="BackgroundImageFix" result="shape"/><feGaussianBlur stdDeviation="7.928946495056152" result="effect1_foregroundBlur"/></filter><linearGradient x1="0.8431747555732727" y1="0.41072407364845276" x2="0.3550180196762085" y2="0.37147384881973267" id="master_svgs__021"><stop offset="0%" stop-color="#8FB4E7" stop-opacity="1"/><stop offset="100%" stop-color="#8FB4E7" stop-opacity="0"/></linearGradient><filter id="master_svgt_0_497" filterUnits="objectBoundingBox" color-interpolation-filters="sRGB" x="-20.5219783782959" y="-20.5219783782959" width="104.47552490234375" height="187.49648666381836"><feFlood flood-opacity="0" result="BackgroundImageFix"/><feBlend mode="normal" in="SourceGraphic" in2="BackgroundImageFix" result="shape"/><feGaussianBlur stdDeviation="5.130494594573975" result="effect1_foregroundBlur"/></filter><linearGradient x1="0.4476776719093323" y1="0.5651600956916809" x2="1.0759999752044678" y2="0.5414012670516968" id="master_svgu__022"><stop offset="0%" stop-color="#5E7DAC" stop-opacity="1"/><stop offset="100%" stop-color="#6D91C5" stop-opacity="0"/></linearGradient><filter id="master_svgv_0_500" filterUnits="objectBoundingBox" color-interpolation-filters="sRGB" x="-27.984516143798828" y="-27.984516143798828" width="165.30809783935547" height="313.4663772583008"><feFlood flood-opacity="0" result="BackgroundImageFix"/><feBlend mode="normal" in="SourceGraphic" in2="BackgroundImageFix" result="shape"/><feGaussianBlur stdDeviation="6.996129035949707" result="effect1_foregroundBlur"/></filter><filter id="master_svgw_0_502" filterUnits="objectBoundingBox" color-interpolation-filters="sRGB" x="-22.38761329650879" y="-22.38761329650879" width="130.9377784729004" height="172.85722732543945"><feFlood flood-opacity="0" result="BackgroundImageFix"/><feBlend mode="normal" in="SourceGraphic" in2="BackgroundImageFix" result="shape"/><feGaussianBlur stdDeviation="5.596903324127197" result="effect1_foregroundBlur"/></filter><filter id="master_svgx_0_505" filterUnits="objectBoundingBox" color-interpolation-filters="sRGB" x="-24.25324821472168" y="-24.25324821472168" width="186.01086044311523" height="106.03135681152344"><feFlood flood-opacity="0" result="BackgroundImageFix"/><feBlend mode="normal" in="SourceGraphic" in2="BackgroundImageFix" result="shape"/><feGaussianBlur stdDeviation="6.06331205368042" result="effect1_foregroundBlur"/></filter><filter id="master_svgy_0_507" filterUnits="objectBoundingBox" color-interpolation-filters="sRGB" x="-14.92507553100586" y="-14.92507553100586" width="57.834686279296875" height="56.90184783935547"><feFlood flood-opacity="0" result="BackgroundImageFix"/><feBlend mode="normal" in="SourceGraphic" in2="BackgroundImageFix" result="shape"/><feGaussianBlur stdDeviation="3.731268882751465" result="effect1_foregroundBlur"/></filter><filter id="master_svgz_0_510" filterUnits="objectBoundingBox" color-interpolation-filters="sRGB" x="0" y="0" width="43.991294860839844" height="48.89967727661133"><feFlood flood-opacity="0" result="BackgroundImageFix"/><feBlend mode="normal" in="SourceGraphic" in2="BackgroundImageFix" result="shape"/><feColorMatrix in="SourceAlpha" type="matrix" result="hardAlpha" values="0 0 0 0 0 0 0 0 0 0 0 0 0 0 0 0 0 0 127 0"/><feOffset dy="0" dx="1.991623878479004"/><feGaussianBlur stdDeviation="1.991623878479004"/><feComposite in2="hardAlpha" operator="arithmetic" k2="-1" k3="1"/><feColorMatrix type="matrix" values="0 0 0 0 1 0 0 0 0 1 0 0 0 0 1 0 0 0 0.25 0"/><feBlend mode="normal" in2="shape" result="effect1_innerShadow"/><feColorMatrix in="SourceAlpha" type="matrix" result="hardAlpha" values="0 0 0 0 0 0 0 0 0 0 0 0 0 0 0 0 0 0 127 0"/><feOffset dy="0" dx="5.596903324127197"/><feGaussianBlur stdDeviation="5.130494594573975"/><feComposite in2="hardAlpha" operator="arithmetic" k2="-1" k3="1"/><feColorMatrix type="matrix" values="0 0 0 0 0.8235294222831726 0 0 0 0 0.800000011920929 0 0 0 0 0.8039215803146362 0 0 0 1 0"/><feBlend mode="normal" in2="effect1_innerShadow" result="effect2_innerShadow"/></filter><filter id="master_svg10_0_513" filterUnits="objectBoundingBox" color-interpolation-filters="sRGB" x="-18.65634536743164" y="-18.65634536743164" width="95.14735794067383" height="92.34891510009766"><feFlood flood-opacity="0" result="BackgroundImageFix"/><feBlend mode="normal" in="SourceGraphic" in2="BackgroundImageFix" result="shape"/><feGaussianBlur stdDeviation="4.66408634185791" result="effect1_foregroundBlur"/></filter><filter id="master_svg11_0_515" filterUnits="objectBoundingBox" color-interpolation-filters="sRGB" x="-27.984516382217407" y="-17.7235267162323" width="78.59883499145508" height="78.37725067138672"><feFlood flood-opacity="0" result="BackgroundImageFix"/><feColorMatrix in="SourceAlpha" type="matrix" values="0 0 0 0 0 0 0 0 0 0 0 0 0 0 0 0 0 0 127 0"/><feOffset dy="0.9328172206878662" dx="-2.7984516620635986"/><feGaussianBlur stdDeviation="1.8656344413757324"/><feColorMatrix type="matrix" values="0 0 0 0 0.1106249988079071 0 0 0 0 0.25552815198898315 0 0 0 0 0.49166667461395264 0 0 0 0.9200000166893005 0"/><feBlend mode="normal" in2="BackgroundImageFix" result="effect1_dropShadow"/><feColorMatrix in="SourceAlpha" type="matrix" values="0 0 0 0 0 0 0 0 0 0 0 0 0 0 0 0 0 0 127 0"/><feOffset dy="1.8656344413757324" dx="-4.66408634185791"/><feGaussianBlur stdDeviation="3.264860153198242"/><feColorMatrix type="matrix" values="0 0 0 0 0.3410937488079071 0 0 0 0 0.5043197870254517 0 0 0 0 0.737500011920929 0 0 0 1 0"/><feBlend mode="normal" in2="effect1_dropShadow" result="effect2_dropShadow"/><feBlend mode="normal" in="SourceGraphic" in2="effect2_dropShadow" result="shape"/><feColorMatrix in="SourceAlpha" type="matrix" result="hardAlpha" values="0 0 0 0 0 0 0 0 0 0 0 0 0 0 0 0 0 0 127 0"/><feOffset dy="-5" dx="6"/><feGaussianBlur stdDeviation="7.5"/><feComposite in2="hardAlpha" operator="arithmetic" k2="-1" k3="1"/><feColorMatrix type="matrix" values="0 0 0 0 0 0 0 0 0 0 0 0 0 0 0 0 0 0 0.1899999976158142 0"/><feBlend mode="normal" in2="shape" result="effect3_innerShadow"/><feColorMatrix in="SourceAlpha" type="matrix" result="hardAlpha" values="0 0 0 0 0 0 0 0 0 0 0 0 0 0 0 0 0 0 127 0"/><feOffset dy="0" dx="1.991623878479004"/><feGaussianBlur stdDeviation="1.991623878479004"/><feComposite in2="hardAlpha" operator="arithmetic" k2="-1" k3="1"/><feColorMatrix type="matrix" values="0 0 0 0 1 0 0 0 0 1 0 0 0 0 1 0 0 0 0.25 0"/><feBlend mode="normal" in2="effect3_innerShadow" result="effect4_innerShadow"/><feColorMatrix in="SourceAlpha" type="matrix" result="hardAlpha" values="0 0 0 0 0 0 0 0 0 0 0 0 0 0 0 0 0 0 127 0"/><feOffset dy="0" dx="5.596903324127197"/><feGaussianBlur stdDeviation="5.130494594573975"/><feComposite in2="hardAlpha" operator="arithmetic" k2="-1" k3="1"/><feColorMatrix type="matrix" values="0 0 0 0 0.8235294222831726 0 0 0 0 0.800000011920929 0 0 0 0 0.8039215803146362 0 0 0 1 0"/><feBlend mode="normal" in2="effect4_innerShadow" result="effect5_innerShadow"/></filter><filter id="master_svg12_0_517" filterUnits="objectBoundingBox" color-interpolation-filters="sRGB" x="0" y="0" width="43.991294860839844" height="48.89967727661133"><feFlood flood-opacity="0" result="BackgroundImageFix"/><feBlend mode="normal" in="SourceGraphic" in2="BackgroundImageFix" result="shape"/><feColorMatrix in="SourceAlpha" type="matrix" result="hardAlpha" values="0 0 0 0 0 0 0 0 0 0 0 0 0 0 0 0 0 0 127 0"/><feOffset dy="0" dx="1.991623878479004"/><feGaussianBlur stdDeviation="1.991623878479004"/><feComposite in2="hardAlpha" operator="arithmetic" k2="-1" k3="1"/><feColorMatrix type="matrix" values="0 0 0 0 1 0 0 0 0 1 0 0 0 0 1 0 0 0 0.25 0"/><feBlend mode="normal" in2="shape" result="effect1_innerShadow"/><feColorMatrix in="SourceAlpha" type="matrix" result="hardAlpha" values="0 0 0 0 0 0 0 0 0 0 0 0 0 0 0 0 0 0 127 0"/><feOffset dy="0" dx="5.596903324127197"/><feGaussianBlur stdDeviation="5.130494594573975"/><feComposite in2="hardAlpha" operator="arithmetic" k2="-1" k3="1"/><feColorMatrix type="matrix" values="0 0 0 0 0.8235294222831726 0 0 0 0 0.800000011920929 0 0 0 0 0.8039215803146362 0 0 0 1 0"/><feBlend mode="normal" in2="effect1_innerShadow" result="effect2_innerShadow"/></filter><mask id="master_svg13_0_517"><g style="mix-blend-mode:passthrough" filter="url(#master_svg12_0_517)"><path d="M266.9655469030762,340.2922296875C249.05550690307618,323.8746296875,266.9654769030762,298.3154296875,277.69290690307616,298.3154296875C302.41260690307615,298.3154581548,303.3454069030762,313.7949296875,303.3454069030762,321.1694296875C303.3454069030762,330.0312296875,289.35320690307617,360.8141296875,266.9655469030762,340.2922296875C266.9655469030762,340.2922296875,266.9655469030762,340.2922296875,266.9655469030762,340.2922296875Z" fill="#FFFFFF" fill-opacity="1"/></g></mask><filter id="master_svg14_0_519" filterUnits="objectBoundingBox" color-interpolation-filters="sRGB" x="0" y="0" width="4.134707450866699" height="11.653908729553223"><feFlood flood-opacity="0" result="BackgroundImageFix"/><feBlend mode="normal" in="SourceGraphic" in2="BackgroundImageFix" result="shape"/><feColorMatrix in="SourceAlpha" type="matrix" result="hardAlpha" values="0 0 0 0 0 0 0 0 0 0 0 0 0 0 0 0 0 0 127 0"/><feOffset dy="0.7283692955970764" dx="-0.7283692955970764"/><feGaussianBlur stdDeviation="0.7283692955970764"/><feComposite in2="hardAlpha" operator="arithmetic" k2="-1" k3="1"/><feColorMatrix type="matrix" values="0 0 0 0 1 0 0 0 0 1 0 0 0 0 1 0 0 0 0.5 0"/><feBlend mode="normal" in2="shape" result="effect1_innerShadow"/></filter><filter id="master_svg15_0_520" filterUnits="objectBoundingBox" color-interpolation-filters="sRGB" x="-7.283692359924316" y="-7.283692359924316" width="18.076494216918945" height="15.73002314567566"><feFlood flood-opacity="0" result="BackgroundImageFix"/><feBlend mode="normal" in="SourceGraphic" in2="BackgroundImageFix" result="shape"/><feGaussianBlur stdDeviation="1.820923089981079" result="effect1_foregroundBlur"/></filter><filter id="master_svg16_0_521" filterUnits="objectBoundingBox" color-interpolation-filters="sRGB" x="-1.4567384719848633" y="-1.4567384719848633" width="5.310110330581665" height="3.6704395413398743"><feFlood flood-opacity="0" result="BackgroundImageFix"/><feBlend mode="normal" in="SourceGraphic" in2="BackgroundImageFix" result="shape"/><feGaussianBlur stdDeviation="0.3641846179962158" result="effect1_foregroundBlur"/></filter><filter id="master_svg17_0_524" filterUnits="objectBoundingBox" color-interpolation-filters="sRGB" x="-27.984516382217407" y="-17.7235267162323" width="78.59883499145508" height="78.37725067138672"><feFlood flood-opacity="0" result="BackgroundImageFix"/><feColorMatrix in="SourceAlpha" type="matrix" values="0 0 0 0 0 0 0 0 0 0 0 0 0 0 0 0 0 0 127 0"/><feOffset dy="0.9328172206878662" dx="-2.7984516620635986"/><feGaussianBlur stdDeviation="1.8656344413757324"/><feColorMatrix type="matrix" values="0 0 0 0 0.1106249988079071 0 0 0 0 0.25552815198898315 0 0 0 0 0.49166667461395264 0 0 0 0.9200000166893005 0"/><feBlend mode="normal" in2="BackgroundImageFix" result="effect1_dropShadow"/><feColorMatrix in="SourceAlpha" type="matrix" values="0 0 0 0 0 0 0 0 0 0 0 0 0 0 0 0 0 0 127 0"/><feOffset dy="1.8656344413757324" dx="-4.66408634185791"/><feGaussianBlur stdDeviation="3.264860153198242"/><feColorMatrix type="matrix" values="0 0 0 0 0.3410937488079071 0 0 0 0 0.5043197870254517 0 0 0 0 0.737500011920929 0 0 0 1 0"/><feBlend mode="normal" in2="effect1_dropShadow" result="effect2_dropShadow"/><feBlend mode="normal" in="SourceGraphic" in2="effect2_dropShadow" result="shape"/><feColorMatrix in="SourceAlpha" type="matrix" result="hardAlpha" values="0 0 0 0 0 0 0 0 0 0 0 0 0 0 0 0 0 0 127 0"/><feOffset dy="0" dx="1.991623878479004"/><feGaussianBlur stdDeviation="1.991623878479004"/><feComposite in2="hardAlpha" operator="arithmetic" k2="-1" k3="1"/><feColorMatrix type="matrix" values="0 0 0 0 1 0 0 0 0 1 0 0 0 0 1 0 0 0 0.25 0"/><feBlend mode="normal" in2="shape" result="effect3_innerShadow"/><feColorMatrix in="SourceAlpha" type="matrix" result="hardAlpha" values="0 0 0 0 0 0 0 0 0 0 0 0 0 0 0 0 0 0 127 0"/><feOffset dy="0" dx="5.596903324127197"/><feGaussianBlur stdDeviation="5.130494594573975"/><feComposite in2="hardAlpha" operator="arithmetic" k2="-1" k3="1"/><feColorMatrix type="matrix" values="0 0 0 0 0.8235294222831726 0 0 0 0 0.800000011920929 0 0 0 0 0.8039215803146362 0 0 0 1 0"/><feBlend mode="normal" in2="effect3_innerShadow" result="effect4_innerShadow"/></filter><mask id="master_svg18_0_524"><g style="mix-blend-mode:passthrough" filter="url(#master_svg17_0_524)"><path d="M231.3697695703125,338.4265677734375C217.3773995703125,318.3709677734375,235.7957495703125,299.2111377734375,247.3004595703125,296.5681577734375C253.3912595703125,295.1689067734375,267.72905957031253,292.4637977734375,276.6840595703125,309.6276677734375C287.8779595703125,331.0824677734375,252.3581595703125,364.0790677734375,231.3697695703125,338.4265677734375C231.3697695703125,338.4265677734375,231.3697695703125,338.4265677734375,231.3697695703125,338.4265677734375Z" fill="#FFFFFF" fill-opacity="1"/></g></mask><filter id="master_svg19_0_526" filterUnits="objectBoundingBox" color-interpolation-filters="sRGB" x="0" y="0" width="5.328725337982178" height="11.653908729553223"><feFlood flood-opacity="0" result="BackgroundImageFix"/><feBlend mode="normal" in="SourceGraphic" in2="BackgroundImageFix" result="shape"/><feColorMatrix in="SourceAlpha" type="matrix" result="hardAlpha" values="0 0 0 0 0 0 0 0 0 0 0 0 0 0 0 0 0 0 127 0"/><feOffset dy="0.7283692955970764" dx="-0.7283692955970764"/><feGaussianBlur stdDeviation="0.7283692955970764"/><feComposite in2="hardAlpha" operator="arithmetic" k2="-1" k3="1"/><feColorMatrix type="matrix" values="0 0 0 0 1 0 0 0 0 1 0 0 0 0 1 0 0 0 0.5 0"/><feBlend mode="normal" in2="shape" result="effect1_innerShadow"/></filter><filter id="master_svg1a_0_528" filterUnits="objectBoundingBox" color-interpolation-filters="sRGB" x="-7.283692836761475" y="-7.283692836761475" width="18.257381677627563" height="15.759166240692139"><feFlood flood-opacity="0" result="BackgroundImageFix"/><feBlend mode="normal" in="SourceGraphic" in2="BackgroundImageFix" result="shape"/><feGaussianBlur stdDeviation="1.8209232091903687" result="effect1_foregroundBlur"/></filter><filter id="master_svg1b_0_530" filterUnits="objectBoundingBox" color-interpolation-filters="sRGB" x="-1.4567385911941528" y="-1.4567385911941528" width="5.476561784744263" height="3.5407907962799072"><feFlood flood-opacity="0" result="BackgroundImageFix"/><feBlend mode="normal" in="SourceGraphic" in2="BackgroundImageFix" result="shape"/><feGaussianBlur stdDeviation="0.3641846477985382" result="effect1_foregroundBlur"/></filter></defs><g style="mix-blend-mode:passthrough"><g style="mix-blend-mode:passthrough"><g style="opacity:0.6700000166893005;mix-blend-mode:passthrough" filter="url(#master_svg0_0_429)"><ellipse cx="188.5" cy="560.5" rx="136.5" ry="7.5" fill="#7D899B" fill-opacity="1"/></g><g style="opacity:0.4000000059604645;mix-blend-mode:passthrough" filter="url(#master_svg1_0_431)"><path d="M250.142,559.17096C250.142,561.4273,244.436,561.2137,181.66500000000002,566.3205C108.0000633261,571.4274,108,563.47,108,561.2137C108,558.95735,111.63143,551.00000304392,200.3406,551C261.653,551,250.142,556.91461,250.142,559.17096C250.142,559.17096,250.142,559.17096,250.142,559.17096Z" fill="#9DA5B0" fill-opacity="1"/></g><g style="opacity:0.800000011920929;mix-blend-mode:passthrough" transform="matrix(0.9989786148071289,0.04518547281622887,-0.04518547281622887,0.9989786148071289,25.14414454781945,-6.36209504314229)" filter="url(#master_svg2_0_433)"><path d="M202.93413602294922,556.18831C202.93413602294922,557.06874,200.9415360229492,556.98539,179.02273602294923,558.97808C153.2997573597492,560.97077,153.29973602294922,557.86581,153.29973602294922,556.98539C153.29973602294922,556.10496,154.5677860229492,553.00000118774,185.54403602294923,553C206.9536360229492,553,202.93413602294922,555.30788,202.93413602294922,556.18831C202.93413602294922,556.18831,202.93413602294922,556.18831,202.93413602294922,556.18831Z" fill="#405372" fill-opacity="1"/></g></g><g style="mix-blend-mode:passthrough"><g style="mix-blend-mode:passthrough" filter="url(#master_svg3_0_437)"><path d="M90.34714794921875,59.6894C53.78074794921875,101.4796,70.44708794921875,227.597,83.35104794921875,285.431C137.45444794921875,293.36,247.62064794921875,304.461,255.45564794921876,285.431C265.2506479492188,261.644,254.52264794921874,175.825,255.45564794921876,121.2554C256.38864794921875,66.6856,236.79964794921875,59.6894,214.87864794921876,42.4323C192.95664794921873,25.175191,136.05524794921877,7.451699999999999,90.34714794921875,59.6894C90.34714794921875,59.6894,90.34714794921875,59.6894,90.34714794921875,59.6894Z" fill="#4FC0CB" fill-opacity="1"/></g><g style="mix-blend-mode:passthrough" filter="url(#master_svg4_0_440)"><path d="M146.948440625,148.15447490234374C137.993440625,144.42324490234375,145.393740625,139.13728490234374,150.213340625,136.96071150234374C129.224840625,135.09507490234375,27.549040625000004,292.69627490234376,146.948440625,279.19227490234374C208.168140625,272.26927490234374,201.98514062499999,215.31737490234374,181.46274062499998,206.92197490234375C160.940740625,198.52667490234376,148.779640625,180.38577490234374,157.67704062500002,169.58667490234376C179.599440625,142.97874490234375,237.898140625,192.92977490234375,201.98514062499999,158.88187490234375C166.071240625,124.83407490234374,158.142240625,152.81857490234376,146.948440625,148.15447490234374C146.948440625,148.15447490234374,146.948440625,148.15447490234374,146.948440625,148.15447490234374Z" fill="url(#master_svg5__010)" fill-opacity="1"/></g></g><g style="mix-blend-mode:passthrough"><g style="mix-blend-mode:passthrough" filter="url(#master_svg6_0_443)"><path d="M190.6949798828125,64.6446936875C182.2995798828125,67.5986196875,166.3483798828125,77.9840296875,169.7065798828125,95.8940296875C173.9042798828125,118.28172968749999,198.2230798828125,117.3719296875,205.1535798828125,116.4160296875C232.2053798828125,112.6848296875,231.27237988281252,56.3679996875,190.6949798828125,64.6446936875ZM138.9235798828125,72.5736196875C136.1251798828125,72.5736196875,116.0695798828125,82.8346296875,121.2000678828125,99.1589296875C126.3305698828125,115.4832296875,140.2233798828125,116.4160296875,150.1173798828125,116.4160296875C172.5049798828125,116.4160296875,173.9042798828125,67.4431296875,138.9235798828125,72.5736196875Z" fill-rule="evenodd" fill="#FFFFFF" fill-opacity="1"/></g><g style="mix-blend-mode:passthrough" transform="matrix(0.2588190734386444,0.9659258127212524,-0.9659258127212524,0.2588190734386444,223.2834803049118,-112.25994553323471)"><g style="mix-blend-mode:passthrough" filter="url(#master_svg7_0_445)"><ellipse cx="190.6187024116516" cy="95.19133424758911" rx="5.826954364776611" ry="5.826954364776611" fill="#292929" fill-opacity="1"/></g><g style="mix-blend-mode:passthrough" transform="matrix(0.775951087474823,-0.6307930946350098,0.6307930946350098,0.775951087474823,-15.987508215611967,141.60617915223094)" filter="url(#master_svg8_0_446)"><ellipse cx="193.89637732505798" cy="94.02873545885086" rx="2.5492923259735107" ry="0.7198279500007629" fill="#FFFFFF" fill-opacity="1"/></g><g style="mix-blend-mode:passthrough" transform="matrix(0.775951087474823,-0.6307930946350098,0.6307930946350098,0.775951087474823,-15.435891164044676,142.39518031222332)" filter="url(#master_svg9_0_447)"><ellipse cx="194.47468268871307" cy="93.3955502808094" rx="1.7411020994186401" ry="0.4686606228351593" fill="#FFFFFF" fill-opacity="1"/></g></g><g style="mix-blend-mode:passthrough" transform="matrix(0.2588190734386444,0.9659258127212524,-0.9659258127212524,0.2588190734386444,204.61602619330188,-87.93204510027499)"><g style="mix-blend-mode:passthrough" filter="url(#master_svga_0_449)"><ellipse cx="165.43260622024536" cy="95.19133424758911" rx="5.826954364776611" ry="5.826954364776611" fill="#292929" fill-opacity="1"/></g><g style="mix-blend-mode:passthrough" transform="matrix(0.775951087474823,-0.6307930946350098,0.6307930946350098,0.775951087474823,-21.630442406968967,125.71896513224331)" filter="url(#master_svgb_0_450)"><ellipse cx="168.71027493476868" cy="94.02875977754593" rx="2.5492923259735107" ry="0.7198279500007629" fill="#FFFFFF" fill-opacity="1"/></g><g style="mix-blend-mode:passthrough" transform="matrix(0.775951087474823,-0.6307930946350098,0.6307930946350098,0.775951087474823,-21.149072230949287,126.51356152726233)" filter="url(#master_svgc_0_451)"><ellipse cx="169.29097890853882" cy="93.40749251842499" rx="1.7707476615905762" ry="0.37889349460601807" fill="#FFFFFF" fill-opacity="1"/></g></g></g><g style="mix-blend-mode:passthrough"><g style="mix-blend-mode:passthrough" filter="url(#master_svgd_0_455)"><path d="M169.80368703536988,126.7225023234375C132.49098703536987,125.2299940234375,121.29720403536987,160.92582402343749,120.36438703536987,178.9602240234375C125.02847703536987,178.9602240234375,127.36051703536987,129.5209540234375,169.80368703536988,129.0545440234375C203.75828703536988,128.6814140234375,216.28908703536987,152.2195240234375,218.3101870353699,164.0352240234375C217.68828703536985,152.2195240234375,207.11638703536988,128.2150140234375,169.80368703536988,126.7225023234375C169.80368703536988,126.7225023234375,169.80368703536988,126.7225023234375,169.80368703536988,126.7225023234375Z" fill="#446E6E" fill-opacity="1"/></g><g style="mix-blend-mode:passthrough" filter="url(#master_svge_0_458)"><path d="M124.83327796875,157.34203256530762C126.44617796874999,153.59633256530762,128.99671796875,149.8869525653076,130.20691796875,147.92494256530762C133.16541796875,144.56150256530762,137.95261796875,139.85268256530762,133.43431796875,147.92494256530762C127.78641796875,158.01523256530763,130.88451796875,164.74213256530763,124.83327796875,176.09383256530762C118.56087296875,187.86023256530763,116.15315796875,177.96013256530762,118.37861296875,175.0001325653076C123.75218796875001,167.8528325653076,123.49384796875,160.45263256530762,124.83327796875,157.34203256530762C124.83327796875,157.34203256530762,124.83327796875,157.34203256530762,124.83327796875,157.34203256530762Z" fill="#437A7C" fill-opacity="1"/></g></g><g style="mix-blend-mode:passthrough"><g style="mix-blend-mode:passthrough" filter="url(#master_svgf_0_461)"><path d="M60.44094520703125,248.27286038513182C56.67025220703125,218.42266038513185,69.09517220703125,146.56296038513184,70.31476220703125,176.91242038513184C71.32676220703125,202.09846038513183,76.29886220703125,214.22496038513185,75.83246220703126,239.41106038513183C75.45936220703125,259.55996038513183,82.51766220703125,290.4046603851318,86.09346220703125,303.3086603851318C81.58486220703125,305.6406603851318,71.72806220703126,309.65266038513187,68.36988220703125,307.04066038513184C64.17218220703126,303.7756603851318,66.50420220703126,296.27166038513184,60.44094520703125,248.27286038513182C60.44094520703125,248.27286038513182,60.44094520703125,248.27286038513182,60.44094520703125,248.27286038513182Z" fill="#4FC0CB" fill-opacity="1"/></g><g style="mix-blend-mode:passthrough" transform="matrix(-0.9878308176994324,0.15553224086761475,0.15553222596645355,0.9878308176994324,489.41672598121687,-38.29303753491854)" filter="url(#master_svgg_0_464)"><path d="M262.00156093261717,250.10166736450196C258.23087093261717,220.25146736450196,263.7356709326172,164.66646736450195,268.4020609326172,194.30446736450196C272.32248093261717,219.20406736450195,274.75388093261716,215.42406736450195,274.2874809326172,240.61016736450196C273.9143809326172,260.7589673645019,279.1921809326172,291.8187673645019,282.7679809326172,304.7227673645019C278.2593809326172,307.05476736450197,268.4025909326172,311.06576736450194,265.04443093261716,308.45376736450197C260.8467187326172,305.1887673645019,268.0648209326172,298.10076736450196,262.00156093261717,250.10166736450196C262.00156093261717,250.10166736450196,262.00156093261717,250.10166736450196,262.00156093261717,250.10166736450196Z" fill="#61CBD6" fill-opacity="1"/></g><g style="mix-blend-mode:passthrough" mask="url(#master_svgh_0_467)"><g style="mix-blend-mode:passthrough" filter="url(#master_svgi_0_470)"><path d="M60.520691644332885,178.69426023378372C60.520691644332885,178.69426023378372,70.74516864433289,158.39286023378372,70.74516864433289,158.39286023378372C70.74516864433289,160.18416023378373,89.14936864433288,202.57826023378374,88.6381686443329,210.34056023378372C88.12696864433289,218.10286023378373,77.39116864433288,209.14636023378372,72.79016864433288,206.16086023378372C68.18908864433288,203.17536023378372,66.14417864433288,203.17536023378372,62.05436864433288,200.78696023378373C58.78252164433289,198.87626023378374,59.66864804433288,185.2623602337837,60.520691644332885,178.69426023378372C60.520691644332885,178.69426023378372,60.520691644332885,178.69426023378372,60.520691644332885,178.69426023378372Z" fill="#4C7A7C" fill-opacity="1"/></g></g><g style="mix-blend-mode:passthrough" mask="url(#master_svgl_0_478)"><g style="mix-blend-mode:passthrough" mask="url(#master_svgj_0_473)"><g style="mix-blend-mode:passthrough" filter="url(#master_svgk_0_476)"><rect x="249.09321784973145" y="182.64608073234558" width="13.992258071899414" height="19.589160919189453" rx="0" fill="#57C6CF" fill-opacity="1"/></g></g><g style="mix-blend-mode:passthrough" filter="url(#master_svgm_0_481)"><path d="M257.0221150024414,180.31406244903565C257.4533150024414,182.89510244903565,257.5231150024414,187.11455244903564,258.4214150024414,189.17585244903563C259.4993150024414,199.66135244903563,260.1283150024414,215.35495244903564,259.6971150024414,216.00015244903565C259.1581150024414,216.80675244903563,253.7685150024414,219.76425244903564,252.1516650024414,216.80675244903563C250.5347850024414,213.84935244903565,249.4567950024414,211.96735244903564,249.4567950024414,209.27875244903564C249.4567950024414,206.59015244903566,242.9892600024414,196.91125244903566,243.5282215024414,194.49155244903565C244.0671830024414,192.07175244903564,246.7619850024414,177.01572244903565,249.4567950024414,174.86486044903563C251.08132500244142,173.56823544903565,253.0035850024414,174.68374944903564,254.6211150024414,174.96722044903564C254.9176150024414,174.86173544903565,255.3897150024414,174.82276944903563,256.0893150024414,174.86486044903563C255.6466150024414,175.06364244903565,255.1501150024414,175.05993144903564,254.6211150024414,174.96722044903564C252.9930550024414,175.54637244903566,256.6574150024414,178.13069244903565,257.0221150024414,180.31406244903565C257.0221150024414,180.31406244903565,257.0221150024414,180.31406244903565,257.0221150024414,180.31406244903565Z" fill="#64CED3" fill-opacity="1"/></g></g></g><g style="mix-blend-mode:passthrough"><g style="mix-blend-mode:passthrough" filter="url(#master_svgn_0_485)"><path d="M65.32818603515625,278.2598651171875C65.32818603515625,278.2598651171875,65.32818603515625,285.2559951171875,65.32818603515625,285.2559951171875C132.80198603515623,287.8989951171875,268.40218603515626,292.3453951171875,271.0141860351563,288.9872951171875C273.62618603515625,285.6290951171875,273.65718603515626,277.6379851171875,273.3461860351563,274.0621851171875C269.6151860351563,274.6840651171875,261.31318603515626,275.5546951171875,257.95518603515626,274.0621851171875C253.75718603515625,272.1965451171875,225.30618603515626,268.4652851171875,220.64218603515624,269.8645051171875C215.97818603515626,271.2637351171875,185.19518603515627,271.7301451171875,176.80018603515623,271.7301451171875C168.40418603515624,271.7301451171875,92.84628603515625,275.4614051171875,88.64858603515626,275.9278151171875C85.29048603515625,276.3009451171875,71.70243603515625,277.6379851171875,65.32818603515625,278.2598651171875C65.32818603515625,278.2598651171875,65.32818603515625,278.2598651171875,65.32818603515625,278.2598651171875Z" fill="#2C686A" fill-opacity="1"/></g><g style="mix-blend-mode:passthrough" filter="url(#master_svgo_0_488)"><path d="M100.6495,276.55444517513274C77.7955,278.4200851751327,73.5978,278.8864951751328,67.5345,279.81930517513274C33.0112,285.13063517513274,86.1324,395.4837351751328,95.0526,407.6157351751327C106.7128,423.47273517513275,114.1753,416.4767351751327,109.0449,445.86073517513273C102.39670000000001,483.93773517513273,125.3692,494.83373517513274,137.0294,499.96373517513274C147.62959999999998,504.62873517513276,168.279,499.4977351751328,171.077,531.2137351751328C173.75,561.5017351751328,200.927,491.10273517513275,181.338,482.70673517513274C161.749,474.31173517513275,159.262,465.4497351751328,166.413,463.5847351751328C202.793,455.65573517513275,220.05,425.33873517513274,230.311,410.87973517513274C240.572,396.42173517513277,238.706,396.8877351751328,268.09000000000003,348.38133517513273C297.474,299.8748351751328,277.885,275.62162517513275,274.62,276.55444517513274C271.355,277.48726517513273,268.09000000000003,276.55444517513274,244.77,272.8231851751328C221.449,269.0919151751327,211.188,273.28958517513274,185.07,272.8231851751328C158.951,272.3567751751327,123.5035,274.68881517513273,100.6495,276.55444517513274C100.6495,276.55444517513274,100.6495,276.55444517513274,100.6495,276.55444517513274Z" fill="#739AD0" fill-opacity="1"/></g><g style="mix-blend-mode:passthrough" mask="url(#master_svgq_0_491)"><g style="mix-blend-mode:passthrough" filter="url(#master_svgr_0_494)"><path d="M218.77671017456055,289.9200881497192C192.65761017456055,282.83067814971923,132.95731017456055,286.96616714971924,106.37211017456055,289.9200881497192C99.37593017456055,290.64672814971925,92.37989117456054,283.8567781497192,93.31270807456055,304.8451581497192C94.24553017456054,325.83355814971924,112.34281017456055,294.48200814971926,133.89031017456054,297.38265814971925C158.14351017456056,300.6474581497192,161.40841017456054,306.71075814971925,179.59831017456054,297.38265814971925C197.78871017456055,288.05445814971927,201.51971017456054,322.5686581497192,225.30671017456055,321.63585814971924C249.09271017456055,320.70305814971925,251.42471017456054,298.78185814971926,218.77671017456055,289.9200881497192C218.77671017456055,289.9200881497192,218.77671017456055,289.9200881497192,218.77671017456055,289.9200881497192Z" fill="url(#master_svgs__021)" fill-opacity="1"/></g><g style="opacity:0.30000001192092896;mix-blend-mode:passthrough" transform="matrix(0.9501997232437134,-0.3116415739059448,0.3116415739059448,0.9501997232437134,-91.65489091357767,42.08411610606299)" filter="url(#master_svgt_0_497)"><path d="M141.92045106201172,320.67608388061524C125.56965106201172,307.65732788061524,99.95815106201172,303.0245938806152,85.85015106201172,313.87357388061525C96.88335106201171,330.14708388061524,89.46759106201172,416.92238388061526,89.46759106201172,443.88938388061524C89.46759106201172,470.8573838806152,106.65045106201171,438.0173838806152,108.64005106201172,427.3233838806152C110.62965106201172,416.62938388061525,116.96015106201172,444.81938388061525,125.82285106201172,443.88938388061524C134.6855510620117,442.95938388061523,162.35895106201173,336.94958388061525,141.92045106201172,320.67608388061524C141.92045106201172,320.67608388061524,141.92045106201172,320.67608388061524,141.92045106201172,320.67608388061524Z" fill="url(#master_svgu__022)" fill-opacity="1"/></g><g style="mix-blend-mode:passthrough" filter="url(#master_svgv_0_500)"><path d="M157.6771462890625,411.6528030166626C124.84194628906249,411.6528030166626,107.61594628906249,332.9852030166626,103.10734628906249,293.6513530166626C91.9135462890625,271.7302030166626,95.1783462890625,297.8491030166626,90.0478462890625,293.6513530166626C84.9174462890625,289.4536830166626,84.4509462890625,281.5247330166626,71.8579462890625,289.4536830166626C59.2649162890625,297.3826030166626,82.5853462890625,351.0196030166626,90.0478462890625,377.6049030166626C97.5104462890625,404.1898030166626,118.4988462890625,411.6528030166626,114.3011462890625,418.1828030166626C110.94294628906249,423.4058030166626,105.4393462890625,427.1998030166626,103.10734628906249,428.4438030166626C103.10734628906249,428.4438030166626,99.3760462890625,456.4278030166626,99.3760462890625,456.4278030166626C99.3760462890625,456.4278030166626,123.6293462890625,506.7998030166626,123.6293462890625,506.7998030166626C123.6293462890625,506.7998030166626,157.6771462890625,517.5278030166626,157.6771462890625,517.5278030166626C161.8748462890625,527.1668030166626,170.9229462890625,545.5118030166626,173.5349462890625,541.7808030166626C176.79994628906252,537.1168030166626,173.5349462890625,505.86680301666263,162.3412462890625,499.8038030166626C151.1474462890625,493.7408030166626,131.09184628906252,486.2778030166626,123.6293462890625,480.2148030166626C116.1667462890625,474.1518030166626,122.2300462890625,449.8978030166626,123.6293462890625,436.8388030166626C125.02854628906249,423.7798030166626,132.4910462890625,424.7118030166626,149.28174628906248,428.4438030166626C166.0724462890625,432.1748030166626,198.7209462890625,411.6528030166626,157.6771462890625,411.6528030166626C157.6771462890625,411.6528030166626,157.6771462890625,411.6528030166626,157.6771462890625,411.6528030166626Z" fill="#5B7AA8" fill-opacity="0.6700000166893005"/></g><g style="mix-blend-mode:passthrough" filter="url(#master_svgw_0_502)"><path d="M153.47939597167968,421.4473337060547C161.31509597167968,422.9398337060547,154.56769597167968,429.5317737060547,150.21459597167967,432.6411737060547C146.9496959716797,435.31727370605466,121.76359597167969,432.6411737060547,118.96519597167969,432.6411737060547C116.16669597167969,432.6411737060547,101.67312597167968,457.8271737060547,129.69259597167968,457.8271737060547C174.0013959716797,457.8271737060547,174.0013959716797,465.2896737060547,168.4044959716797,468.0881737060547C163.38109597167968,470.59987370605467,136.22229597167967,457.3607737060547,124.5620959716797,463.4240737060547C117.4909959716797,467.1010737060547,122.69639597167969,495.1398737060547,147.41609597167968,499.8039737060547C172.1356959716797,504.46807370605467,173.06859597167968,525.9231737060547,173.06859597167968,531.5201737060547C173.06859597167968,537.1161737060547,175.4005959716797,536.6501737060547,177.26619597167968,533.8521737060547C179.13189597167968,531.0531737060547,182.3966959716797,533.8521737060547,180.99749597167968,536.6501737060547C179.87809597167967,538.8891737060546,175.2450959716797,542.5581737060547,173.06859597167968,544.1131737060547C173.06859597167968,544.1131737060547,163.27399597167968,523.1241737060546,163.27399597167968,523.1241737060546C158.9207959716797,519.2371737060547,148.7220959716797,511.4641737060547,142.7519959716797,511.4641737060547C135.28939597167968,511.4641737060547,111.96909597167969,491.40857370605465,102.17449597167969,483.9460737060547C92.3799159716797,476.4835737060547,93.31272597167968,432.6411737060547,102.17449597167969,421.4473337060547C111.03629597167969,410.2535237060547,143.68489597167968,419.5816937060547,153.47939597167968,421.4473337060547C153.47939597167968,421.4473337060547,153.47939597167968,421.4473337060547,153.47939597167968,421.4473337060547Z" fill="#506D9A" fill-opacity="0.7900000214576721"/></g></g><g style="opacity:0.4000000059604645;mix-blend-mode:passthrough" filter="url(#master_svgx_0_505)"><path d="M167.93807841796874,358.4821930078125C147.04297841796875,352.5121630078125,122.54097841796874,360.9697030078125,112.90185841796875,365.9447330078125C109.63698841796875,368.5877330078125,105.06618841796875,378.6310330078125,112.90185841796875,397.6605330078125C122.69647841796875,421.4473330078125,142.75197841796876,412.5856330078125,162.34117841796876,411.1863330078125C181.93027841796874,409.7871330078125,180.53107841796873,392.0636330078125,205.25077841796875,397.6605330078125C229.97037841796873,403.2574330078125,222.04137841796876,393.4628330078125,240.23137841796876,379.00413300781247C258.42137841796875,364.5455030078125,229.97037841796873,358.4821930078125,212.24737841796875,365.9447330078125C194.52337841796873,373.4072330078125,194.05697841796876,365.9447330078125,167.93807841796874,358.4821930078125C167.93807841796874,358.4821930078125,167.93807841796874,358.4821930078125,167.93807841796874,358.4821930078125Z" fill="#6689BA" fill-opacity="1"/></g><g style="opacity:0.4000000059604645;mix-blend-mode:passthrough" filter="url(#master_svgy_0_507)"><path d="M148.63451607421874,484.658850921875C143.57268607421875,482.788634921875,145.88747207421875,484.881509921875,147.55254607421875,487.664584921875C155.54493607421875,493.676014921875,162.87117607421874,493.676014921875,167.86637607421875,498.017644921875C172.86157607421876,502.359144921875,171.94547607421876,515.049944921875,173.27757607421876,509.706444921875C174.60967607421875,504.362944921875,170.61347607421874,493.675994921875,164.95217607421876,492.006154921875C159.29097607421875,490.336314921875,154.96179607421874,486.996634921875,148.63451607421874,484.658850921875C148.63451607421874,484.658850921875,148.63451607421874,484.658850921875,148.63451607421874,484.658850921875Z" fill="#9EC7FF" fill-opacity="1"/></g></g><g style="mix-blend-mode:passthrough"><g style="mix-blend-mode:passthrough" filter="url(#master_svgz_0_510)"><path d="M266.965558347168,340.2922296875C249.05551834716798,323.8746296875,266.965488347168,298.3154296875,277.69291834716796,298.3154296875C302.41261834716795,298.3154581548,303.345418347168,313.7949296875,303.345418347168,321.1694296875C303.345418347168,330.0312296875,289.35321834716797,360.8141296875,266.965558347168,340.2922296875C266.965558347168,340.2922296875,266.965558347168,340.2922296875,266.965558347168,340.2922296875Z" fill="#FFFFFF" fill-opacity="1"/></g><g style="opacity:0.5;mix-blend-mode:passthrough" filter="url(#master_svg10_0_513)"><path d="M227.25287640625,340.7074677734375C211.83281640625,319.5858677734375,232.13046640625,299.4075077734375,244.80906640625,296.6240277734375C251.52136640625,295.1504107734375,267.32206640625,292.3014977734375,277.19076640625,310.3776677734375C289.52676640625,332.9729677734375,250.38276640625,367.7235677734375,227.25287640625,340.7074677734375C227.25287640625,340.7074677734375,227.25287640625,340.7074677734375,227.25287640625,340.7074677734375Z" fill="#8F9497" fill-opacity="1"/></g><g style="mix-blend-mode:passthrough" filter="url(#master_svg11_0_515)"><path d="M231.36976241775514,338.4265677734375C217.37739241775512,318.3709677734375,235.79574241775512,299.2111377734375,247.30045241775514,296.5681577734375C253.39125241775514,295.1689067734375,267.72905241775516,292.4637977734375,276.68405241775514,309.6276677734375C287.8779524177551,331.0824677734375,252.35815241775512,364.0790677734375,231.36976241775514,338.4265677734375C231.36976241775514,338.4265677734375,231.36976241775514,338.4265677734375,231.36976241775514,338.4265677734375Z" fill="#FFFFFF" fill-opacity="1"/></g><g style="mix-blend-mode:passthrough" mask="url(#master_svg13_0_517)"><g style="mix-blend-mode:passthrough" transform="matrix(-0.2713887393474579,0.9624698162078857,-0.9624698162078857,-0.2713887393474579,664.6132256894125,98.49224894721328)"><g style="mix-blend-mode:passthrough" filter="url(#master_svg14_0_519)"><ellipse cx="297.09354543685913" cy="306.63664507865906" rx="2.0673537254333496" ry="5.826954364776611" fill="#292929" fill-opacity="1"/></g><g style="mix-blend-mode:passthrough" transform="matrix(0.40000012516975403,-0.9165151119232178,0.2771240472793579,0.9608341455459595,93.95644948230921,284.46351618126533)" filter="url(#master_svg15_0_520)"><ellipse cx="299.1065113544464" cy="305.3354107141495" rx="1.7545547485351562" ry="0.5813192129135132" fill="#FFFFFF" fill-opacity="1"/></g><g style="mix-blend-mode:passthrough" transform="matrix(0.40000012516975403,-0.9165151119232178,0.2771240472793579,0.9608341455459595,94.35743252297104,284.89938638498506)" filter="url(#master_svg16_0_521)"><ellipse cx="299.04216849803925" cy="304.75062838196754" rx="1.1983166933059692" ry="0.37848129868507385" fill="#FFFFFF" fill-opacity="1"/></g></g></g><g style="mix-blend-mode:passthrough" mask="url(#master_svg18_0_524)"><g style="mix-blend-mode:passthrough" transform="matrix(-0.3371018171310425,0.9414681792259216,-0.9414681792259216,-0.3371018171310425,640.2753600912338,144.33483396090884)"><g style="mix-blend-mode:passthrough" filter="url(#master_svg19_0_526)"><ellipse cx="271.9881694316864" cy="303.40685653686523" rx="2.664362668991089" ry="5.826954364776611" fill="#292929" fill-opacity="1"/></g><g style="mix-blend-mode:passthrough" transform="matrix(0.49024122953414917,-0.871586799621582,0.34841835498809814,0.9373391270637512,33.761476955053496,256.2453867643807)" filter="url(#master_svg1a_0_528)"><ellipse cx="274.16623961925507" cy="302.12037324905396" rx="1.8449980020523071" ry="0.5958902835845947" fill="#FFFFFF" fill-opacity="1"/></g><g style="mix-blend-mode:passthrough" transform="matrix(0.49024122953414917,-0.871586799621582,0.34841835498809814,0.9373391270637512,34.175961763240366,256.76953174325877)" filter="url(#master_svg1b_0_530)"><ellipse cx="274.2243037223816" cy="301.5578455924988" rx="1.2815423011779785" ry="0.3136568069458008" fill="#FFFFFF" fill-opacity="1"/></g></g></g></g></g></svg>