<svg xmlns="http://www.w3.org/2000/svg" xmlns:xlink="http://www.w3.org/1999/xlink" fill="none" version="1.1" width="377" height="461.24725341796875" viewBox="0 0 377 461.24725341796875"><defs><filter id="master_svg0_0_8" filterUnits="objectBoundingBox" color-interpolation-filters="sRGB" x="-52" y="-52" width="377" height="119"><feFlood flood-opacity="0" result="BackgroundImageFix"/><feBlend mode="normal" in="SourceGraphic" in2="BackgroundImageFix" result="shape"/><feGaussianBlur stdDeviation="13" result="effect1_foregroundBlur"/></filter><filter id="master_svg1_0_11" filterUnits="objectBoundingBox" color-interpolation-filters="sRGB" x="-16" y="-16" width="175.6977996826172" height="47.209099769592285"><feFlood flood-opacity="0" result="BackgroundImageFix"/><feBlend mode="normal" in="SourceGraphic" in2="BackgroundImageFix" result="shape"/><feGaussianBlur stdDeviation="4" result="effect1_foregroundBlur"/></filter><filter id="master_svg2_0_14" filterUnits="objectBoundingBox" color-interpolation-filters="sRGB" x="-12" y="-12" width="65.15344619750977" height="34.10795879364014"><feFlood flood-opacity="0" result="BackgroundImageFix"/><feBlend mode="normal" in="SourceGraphic" in2="BackgroundImageFix" result="shape"/><feGaussianBlur stdDeviation="3" result="effect1_foregroundBlur"/></filter><filter id="master_svg3_0_16" filterUnits="objectBoundingBox" color-interpolation-filters="sRGB" x="-12" y="-12" width="63.423763275146484" height="34.686076164245605"><feFlood flood-opacity="0" result="BackgroundImageFix"/><feBlend mode="normal" in="SourceGraphic" in2="BackgroundImageFix" result="shape"/><feGaussianBlur stdDeviation="3" result="effect1_foregroundBlur"/></filter><filter id="master_svg4_0_19" filterUnits="objectBoundingBox" color-interpolation-filters="sRGB" x="0" y="0" width="251.8283233642578" height="250.4958953857422"><feFlood flood-opacity="0" result="BackgroundImageFix"/><feBlend mode="normal" in="SourceGraphic" in2="BackgroundImageFix" result="shape"/><feColorMatrix in="SourceAlpha" type="matrix" result="hardAlpha" values="0 0 0 0 0 0 0 0 0 0 0 0 0 0 0 0 0 0 127 0"/><feOffset dy="3" dx="-1"/><feGaussianBlur stdDeviation="8.5"/><feComposite in2="hardAlpha" operator="arithmetic" k2="-1" k3="1"/><feColorMatrix type="matrix" values="0 0 0 0 1 0 0 0 0 0.875 0 0 0 0 0.875 0 0 0 1 0"/><feBlend mode="normal" in2="shape" result="effect1_innerShadow"/><feColorMatrix in="SourceAlpha" type="matrix" result="hardAlpha" values="0 0 0 0 0 0 0 0 0 0 0 0 0 0 0 0 0 0 127 0"/><feOffset dy="-17" dx="23"/><feGaussianBlur stdDeviation="13.5"/><feComposite in2="hardAlpha" operator="arithmetic" k2="-1" k3="1"/><feColorMatrix type="matrix" values="0 0 0 0 0.6916666626930237 0 0 0 0 0.10663193464279175 0 0 0 0 0.11921331286430359 0 0 0 1 0"/><feBlend mode="normal" in2="effect1_innerShadow" result="effect2_innerShadow"/></filter><filter id="master_svg5_0_21" filterUnits="objectBoundingBox" color-interpolation-filters="sRGB" x="0" y="0" width="250.65728759765625" height="240.54367065429688"><feFlood flood-opacity="0" result="BackgroundImageFix"/><feBlend mode="normal" in="SourceGraphic" in2="BackgroundImageFix" result="shape"/><feColorMatrix in="SourceAlpha" type="matrix" result="hardAlpha" values="0 0 0 0 0 0 0 0 0 0 0 0 0 0 0 0 0 0 127 0"/><feOffset dy="3" dx="-1"/><feGaussianBlur stdDeviation="8.5"/><feComposite in2="hardAlpha" operator="arithmetic" k2="-1" k3="1"/><feColorMatrix type="matrix" values="0 0 0 0 1 0 0 0 0 0.875 0 0 0 0 0.875 0 0 0 1 0"/><feBlend mode="normal" in2="shape" result="effect1_innerShadow"/><feColorMatrix in="SourceAlpha" type="matrix" result="hardAlpha" values="0 0 0 0 0 0 0 0 0 0 0 0 0 0 0 0 0 0 127 0"/><feOffset dy="-17" dx="23"/><feGaussianBlur stdDeviation="13.5"/><feComposite in2="hardAlpha" operator="arithmetic" k2="-1" k3="1"/><feColorMatrix type="matrix" values="0 0 0 0 0.6916666626930237 0 0 0 0 0.10663193464279175 0 0 0 0 0.11921331286430359 0 0 0 1 0"/><feBlend mode="normal" in2="effect1_innerShadow" result="effect2_innerShadow"/></filter><mask id="master_svg6_0_21"><g style="mix-blend-mode:passthrough" filter="url(#master_svg5_0_21)"><path d="M107.52742685546875,254.603375C-17.805373144531252,224.32147500000002,47.942626855468745,158.570105,48.54932685546875,153.109375C133.96452685546876,179.787775,258.16152685546876,229.06347499999998,278.82752685546876,216.742075C279.24852685546875,211.746475,280.3465268554687,210.136275,281.3625268554688,243.660375C282.63252685546877,285.565375,266.7595268554687,364.931375,266.12452685546873,375.089375C265.48952685546874,385.248375,236.91752685546874,404.931375,214.06052685546874,384.613375C191.20252685546876,364.296375,191.20352685546874,383.344375,172.15552685546874,390.328375C153.10752685546873,397.312375,139.18652685546874,394.494375,123.41112685546875,370.224375C107.63572685546875,345.955375,128.68182685546876,259.714375,107.52742685546875,254.603375C107.52742685546875,254.603375,107.52742685546875,254.603375,107.52742685546875,254.603375Z" fill="#FFFFFF" fill-opacity="1"/></g></mask><filter id="master_svg7_0_24" filterUnits="objectBoundingBox" color-interpolation-filters="sRGB" x="-14" y="-14" width="175.2429962158203" height="52.01081085205078"><feFlood flood-opacity="0" result="BackgroundImageFix"/><feBlend mode="normal" in="SourceGraphic" in2="BackgroundImageFix" result="shape"/><feGaussianBlur stdDeviation="3.5" result="effect1_foregroundBlur"/></filter><filter id="master_svg8_0_26" filterUnits="objectBoundingBox" color-interpolation-filters="sRGB" x="-16" y="-16" width="62.48641777038574" height="51.677738189697266"><feFlood flood-opacity="0" result="BackgroundImageFix"/><feBlend mode="normal" in="SourceGraphic" in2="BackgroundImageFix" result="shape"/><feGaussianBlur stdDeviation="4" result="effect1_foregroundBlur"/></filter><filter id="master_svg9_0_29" filterUnits="objectBoundingBox" color-interpolation-filters="sRGB" x="-8" y="-8" width="31.559358596801758" height="25.78207302093506"><feFlood flood-opacity="0" result="BackgroundImageFix"/><feBlend mode="normal" in="SourceGraphic" in2="BackgroundImageFix" result="shape"/><feGaussianBlur stdDeviation="2" result="effect1_foregroundBlur"/></filter><filter id="master_svga_0_32" filterUnits="objectBoundingBox" color-interpolation-filters="sRGB" x="-20" y="-20" width="245.0926055908203" height="95.96100997924805"><feFlood flood-opacity="0" result="BackgroundImageFix"/><feBlend mode="normal" in="SourceGraphic" in2="BackgroundImageFix" result="shape"/><feGaussianBlur stdDeviation="5" result="effect1_foregroundBlur"/></filter><filter id="master_svgb_0_34" filterUnits="objectBoundingBox" color-interpolation-filters="sRGB" x="-16" y="-16" width="227.77015686035156" height="85.80371856689453"><feFlood flood-opacity="0" result="BackgroundImageFix"/><feBlend mode="normal" in="SourceGraphic" in2="BackgroundImageFix" result="shape"/><feGaussianBlur stdDeviation="4" result="effect1_foregroundBlur"/></filter><filter id="master_svgc_0_37" filterUnits="objectBoundingBox" color-interpolation-filters="sRGB" x="-24" y="-24" width="81.35319900512695" height="167.2176055908203"><feFlood flood-opacity="0" result="BackgroundImageFix"/><feBlend mode="normal" in="SourceGraphic" in2="BackgroundImageFix" result="shape"/><feGaussianBlur stdDeviation="6" result="effect1_foregroundBlur"/></filter><filter id="master_svgd_0_39" filterUnits="objectBoundingBox" color-interpolation-filters="sRGB" x="-14" y="-14" width="52.43610191345215" height="137.8881378173828"><feFlood flood-opacity="0" result="BackgroundImageFix"/><feBlend mode="normal" in="SourceGraphic" in2="BackgroundImageFix" result="shape"/><feGaussianBlur stdDeviation="3.5" result="effect1_foregroundBlur"/></filter><filter id="master_svge_0_41" filterUnits="objectBoundingBox" color-interpolation-filters="sRGB" x="-16" y="-16" width="75.13574600219727" height="65.31652069091797"><feFlood flood-opacity="0" result="BackgroundImageFix"/><feBlend mode="normal" in="SourceGraphic" in2="BackgroundImageFix" result="shape"/><feGaussianBlur stdDeviation="4" result="effect1_foregroundBlur"/></filter><filter id="master_svgf_0_45" filterUnits="objectBoundingBox" color-interpolation-filters="sRGB" x="-10" y="-10" width="196.08863830566406" height="61.47147750854492"><feFlood flood-opacity="0" result="BackgroundImageFix"/><feBlend mode="normal" in="SourceGraphic" in2="BackgroundImageFix" result="shape"/><feGaussianBlur stdDeviation="2.5" result="effect1_foregroundBlur"/></filter><filter id="master_svgg_0_48" filterUnits="objectBoundingBox" color-interpolation-filters="sRGB" x="0" y="0" width="314.5816650390625" height="241.6260986328125"><feFlood flood-opacity="0" result="BackgroundImageFix"/><feBlend mode="normal" in="SourceGraphic" in2="BackgroundImageFix" result="shape"/><feColorMatrix in="SourceAlpha" type="matrix" result="hardAlpha" values="0 0 0 0 0 0 0 0 0 0 0 0 0 0 0 0 0 0 127 0"/><feOffset dy="-9" dx="0"/><feGaussianBlur stdDeviation="12.5"/><feComposite in2="hardAlpha" operator="arithmetic" k2="-1" k3="1"/><feColorMatrix type="matrix" values="0 0 0 0 0 0 0 0 0 0 0 0 0 0 0 0 0 0 0.25 0"/><feBlend mode="normal" in2="shape" result="effect1_innerShadow"/></filter><filter id="master_svgh_0_50" filterUnits="objectBoundingBox" color-interpolation-filters="sRGB" x="0" y="0" width="314.5816650390625" height="241.6260986328125"><feFlood flood-opacity="0" result="BackgroundImageFix"/><feBlend mode="normal" in="SourceGraphic" in2="BackgroundImageFix" result="shape"/><feColorMatrix in="SourceAlpha" type="matrix" result="hardAlpha" values="0 0 0 0 0 0 0 0 0 0 0 0 0 0 0 0 0 0 127 0"/><feOffset dy="-9" dx="0"/><feGaussianBlur stdDeviation="12.5"/><feComposite in2="hardAlpha" operator="arithmetic" k2="-1" k3="1"/><feColorMatrix type="matrix" values="0 0 0 0 0 0 0 0 0 0 0 0 0 0 0 0 0 0 0.25 0"/><feBlend mode="normal" in2="shape" result="effect1_innerShadow"/></filter><mask id="master_svgi_0_50"><g style="mix-blend-mode:passthrough" filter="url(#master_svgh_0_50)"><path d="M82.504633984375,43.3096C83.621633984375,38.2835,104.84293398437501,23.9963,115.313933984375,17.481C218.628333984375,-23.7051,291.473333984375,20.3513,298.208333984375,23.7637C306.441333984375,27.9349,303.094333984375,43.3096,324.036333984375,50.2903C344.978333984375,57.271,348.469333984375,79.6092,354.751333984375,100.551C361.034333984375,121.493,349.167333984375,186.414,280.75633398437503,222.713C212.345333984375,259.013,125.086833984375,233.883,109.729333984375,222.713C94.371833984375,211.544,55.978033984375,183.622,44.808883984375,139.643C33.639763984375,95.6648,55.279933984375,65.6478,59.468333984375,62.8555C63.656733984374995,60.0633,81.108533984375,49.5922,82.504633984375,43.3096C82.504633984375,43.3096,82.504633984375,43.3096,82.504633984375,43.3096Z" fill="#FFFFFF" fill-opacity="1"/></g></mask><filter id="master_svgj_0_52" filterUnits="objectBoundingBox" color-interpolation-filters="sRGB" x="-12" y="-12" width="299.78704833984375" height="102.03821563720703"><feFlood flood-opacity="0" result="BackgroundImageFix"/><feBlend mode="normal" in="SourceGraphic" in2="BackgroundImageFix" result="shape"/><feGaussianBlur stdDeviation="3" result="effect1_foregroundBlur"/></filter><linearGradient x1="0.48032185435295105" y1="0.45899343490600586" x2="0.48032185435295105" y2="0.9624849557876587" id="master_svgk__05"><stop offset="0%" stop-color="#369495" stop-opacity="1"/><stop offset="100%" stop-color="#369495" stop-opacity="0"/></linearGradient><filter id="master_svgl_0_54" filterUnits="objectBoundingBox" color-interpolation-filters="sRGB" x="-94" y="-89" width="313.8016662597656" height="192.0391387939453"><feFlood flood-opacity="0" result="BackgroundImageFix"/><feColorMatrix in="SourceAlpha" type="matrix" values="0 0 0 0 0 0 0 0 0 0 0 0 0 0 0 0 0 0 127 0"/><feOffset dy="0" dx="-5"/><feGaussianBlur stdDeviation="4"/><feColorMatrix type="matrix" values="0 0 0 0 0 0 0 0 0 0 0 0 0 0 0 0 0 0 0.4000000059604645 0"/><feBlend mode="normal" in2="BackgroundImageFix" result="effect1_dropShadow"/><feColorMatrix in="SourceAlpha" type="matrix" values="0 0 0 0 0 0 0 0 0 0 0 0 0 0 0 0 0 0 127 0"/><feOffset dy="0" dx="-10"/><feGaussianBlur stdDeviation="3"/><feColorMatrix type="matrix" values="0 0 0 0 0.5096875429153442 0 0 0 0 0.9667882919311523 0 0 0 0 0.970833420753479 0 0 0 1 0"/><feBlend mode="normal" in2="effect1_dropShadow" result="effect2_dropShadow"/><feColorMatrix in="SourceAlpha" type="matrix" values="0 0 0 0 0 0 0 0 0 0 0 0 0 0 0 0 0 0 127 0"/><feOffset dy="-7" dx="0"/><feGaussianBlur stdDeviation="5"/><feColorMatrix type="matrix" values="0 0 0 0 0 0 0 0 0 0 0 0 0 0 0 0 0 0 0.44999998807907104 0"/><feBlend mode="normal" in2="effect2_dropShadow" result="effect3_dropShadow"/><feColorMatrix in="SourceAlpha" type="matrix" values="0 0 0 0 0 0 0 0 0 0 0 0 0 0 0 0 0 0 127 0"/><feOffset dy="-12" dx="0"/><feGaussianBlur stdDeviation="4"/><feColorMatrix type="matrix" values="0 0 0 0 0.5568627715110779 0 0 0 0 0.9921568632125854 0 0 0 0 0.9960784316062927 0 0 0 1 0"/><feBlend mode="normal" in2="effect3_dropShadow" result="effect4_dropShadow"/><feColorMatrix in="SourceAlpha" type="matrix" values="0 0 0 0 0 0 0 0 0 0 0 0 0 0 0 0 0 0 127 0"/><feOffset dy="4" dx="7"/><feGaussianBlur stdDeviation="2.5"/><feColorMatrix type="matrix" values="0 0 0 0 0 0 0 0 0 0 0 0 0 0 0 0 0 0 0.25 0"/><feBlend mode="normal" in2="effect4_dropShadow" result="effect5_dropShadow"/><feColorMatrix in="SourceAlpha" type="matrix" values="0 0 0 0 0 0 0 0 0 0 0 0 0 0 0 0 0 0 127 0"/><feOffset dy="13" dx="0"/><feGaussianBlur stdDeviation="3"/><feColorMatrix type="matrix" values="0 0 0 0 0.5583333373069763 0 0 0 0 0.996225118637085 0 0 0 0 1 0 0 0 1 0"/><feBlend mode="normal" in2="effect5_dropShadow" result="effect6_dropShadow"/><feBlend mode="normal" in="SourceGraphic" in2="effect6_dropShadow" result="shape"/><feColorMatrix in="SourceAlpha" type="matrix" result="hardAlpha" values="0 0 0 0 0 0 0 0 0 0 0 0 0 0 0 0 0 0 127 0"/><feOffset dy="6" dx="1"/><feGaussianBlur stdDeviation="4"/><feComposite in2="hardAlpha" operator="arithmetic" k2="-1" k3="1"/><feColorMatrix type="matrix" values="0 0 0 0 0.38333332538604736 0 0 0 0 0.07549653947353363 0 0 0 0 0.07187500596046448 0 0 0 1 0"/><feBlend mode="normal" in2="shape" result="effect7_innerShadow"/><feColorMatrix in="SourceAlpha" type="matrix" result="hardAlpha" values="0 0 0 0 0 0 0 0 0 0 0 0 0 0 0 0 0 0 127 0"/><feOffset dy="-6" dx="-3"/><feGaussianBlur stdDeviation="3"/><feComposite in2="hardAlpha" operator="arithmetic" k2="-1" k3="1"/><feColorMatrix type="matrix" values="0 0 0 0 0.3708333373069763 0 0 0 0 0.08867102861404419 0 0 0 0 0.08498263359069824 0 0 0 1 0"/><feBlend mode="normal" in2="effect7_innerShadow" result="effect8_innerShadow"/><feColorMatrix in="SourceAlpha" type="matrix" result="hardAlpha" values="0 0 0 0 0 0 0 0 0 0 0 0 0 0 0 0 0 0 127 0"/><feOffset dy="7" dx="6"/><feGaussianBlur stdDeviation="4"/><feComposite in2="hardAlpha" operator="arithmetic" k2="-1" k3="1"/><feColorMatrix type="matrix" values="0 0 0 0 0.22083333134651184 0 0 0 0 0.03772570192813873 0 0 0 0 0.03772570192813873 0 0 0 1 0"/><feBlend mode="normal" in2="effect8_innerShadow" result="effect9_innerShadow"/><feColorMatrix in="SourceAlpha" type="matrix" result="hardAlpha" values="0 0 0 0 0 0 0 0 0 0 0 0 0 0 0 0 0 0 127 0"/><feOffset dy="-13" dx="9"/><feGaussianBlur stdDeviation="16.5"/><feComposite in2="hardAlpha" operator="arithmetic" k2="-1" k3="1"/><feColorMatrix type="matrix" values="0 0 0 0 0.5333333611488342 0 0 0 0 0.12156862765550613 0 0 0 0 0.11764705926179886 0 0 0 1 0"/><feBlend mode="normal" in2="effect9_innerShadow" result="effect10_innerShadow"/></filter><filter id="master_svgm_0_59" filterUnits="objectBoundingBox" color-interpolation-filters="sRGB" x="-29" y="-19" width="107.1248779296875" height="107.1248779296875"><feFlood flood-opacity="0" result="BackgroundImageFix"/><feColorMatrix in="SourceAlpha" type="matrix" values="0 0 0 0 0 0 0 0 0 0 0 0 0 0 0 0 0 0 127 0"/><feOffset dy="1" dx="-1"/><feGaussianBlur stdDeviation="1"/><feColorMatrix type="matrix" values="0 0 0 0 0.2708333432674408 0 0 0 0 0.022631261497735977 0 0 0 0 0.019184023141860962 0 0 0 1 0"/><feBlend mode="normal" in2="BackgroundImageFix" result="effect1_dropShadow"/><feColorMatrix in="SourceAlpha" type="matrix" values="0 0 0 0 0 0 0 0 0 0 0 0 0 0 0 0 0 0 127 0"/><feOffset dy="4" dx="-4"/><feGaussianBlur stdDeviation="5"/><feColorMatrix type="matrix" values="0 0 0 0 0.3333333432674408 0 0 0 0 0.06805554032325745 0 0 0 0 0.10664136707782745 0 0 0 1 0"/><feBlend mode="normal" in2="effect1_dropShadow" result="effect2_dropShadow"/><feBlend mode="normal" in="SourceGraphic" in2="effect2_dropShadow" result="shape"/><feColorMatrix in="SourceAlpha" type="matrix" result="hardAlpha" values="0 0 0 0 0 0 0 0 0 0 0 0 0 0 0 0 0 0 127 0"/><feOffset dy="-7" dx="0"/><feGaussianBlur stdDeviation="4"/><feComposite in2="hardAlpha" operator="arithmetic" k2="-1" k3="1"/><feColorMatrix type="matrix" values="0 0 0 0 0.5666666626930237 0 0 0 0 0.12277776002883911 0 0 0 0 0.12277776002883911 0 0 0 0.25999999046325684 0"/><feBlend mode="normal" in2="shape" result="effect3_innerShadow"/><feColorMatrix in="SourceAlpha" type="matrix" result="hardAlpha" values="0 0 0 0 0 0 0 0 0 0 0 0 0 0 0 0 0 0 127 0"/><feOffset dy="0" dx="2.135063409805298"/><feGaussianBlur stdDeviation="2.135063409805298"/><feComposite in2="hardAlpha" operator="arithmetic" k2="-1" k3="1"/><feColorMatrix type="matrix" values="0 0 0 0 1 0 0 0 0 1 0 0 0 0 1 0 0 0 0.25 0"/><feBlend mode="normal" in2="effect3_innerShadow" result="effect4_innerShadow"/><feColorMatrix in="SourceAlpha" type="matrix" result="hardAlpha" values="0 0 0 0 0 0 0 0 0 0 0 0 0 0 0 0 0 0 127 0"/><feOffset dy="0" dx="11.74284839630127"/><feGaussianBlur stdDeviation="8.540253639221191"/><feComposite in2="hardAlpha" operator="arithmetic" k2="-1" k3="1"/><feColorMatrix type="matrix" values="0 0 0 0 0.5916666388511658 0 0 0 0 0.4634721875190735 0 0 0 0 0.49952688813209534 0 0 0 0.699999988079071 0"/><feBlend mode="normal" in2="effect4_innerShadow" result="effect5_innerShadow"/></filter><filter id="master_svgn_0_63" filterUnits="objectBoundingBox" color-interpolation-filters="sRGB" x="0" y="0" width="21.615625381469727" height="21.615625381469727"><feFlood flood-opacity="0" result="BackgroundImageFix"/><feBlend mode="normal" in="SourceGraphic" in2="BackgroundImageFix" result="shape"/><feColorMatrix in="SourceAlpha" type="matrix" result="hardAlpha" values="0 0 0 0 0 0 0 0 0 0 0 0 0 0 0 0 0 0 127 0"/><feOffset dy="1.067531704902649" dx="-1.067531704902649"/><feGaussianBlur stdDeviation="1.067531704902649"/><feComposite in2="hardAlpha" operator="arithmetic" k2="-1" k3="1"/><feColorMatrix type="matrix" values="0 0 0 0 1 0 0 0 0 1 0 0 0 0 1 0 0 0 0.5 0"/><feBlend mode="normal" in2="shape" result="effect1_innerShadow"/></filter><filter id="master_svgo_0_65" filterUnits="objectBoundingBox" color-interpolation-filters="sRGB" x="-10.67531681060791" y="-10.67531681060791" width="30.807469367980957" height="24.020902156829834"><feFlood flood-opacity="0" result="BackgroundImageFix"/><feBlend mode="normal" in="SourceGraphic" in2="BackgroundImageFix" result="shape"/><feGaussianBlur stdDeviation="2.6688292026519775" result="effect1_foregroundBlur"/></filter><filter id="master_svgp_0_67" filterUnits="objectBoundingBox" color-interpolation-filters="sRGB" x="-2.135063409805298" y="-2.135063409805298" width="10.838879108428955" height="5.6756672859191895"><feFlood flood-opacity="0" result="BackgroundImageFix"/><feBlend mode="normal" in="SourceGraphic" in2="BackgroundImageFix" result="shape"/><feGaussianBlur stdDeviation="0.5337658524513245" result="effect1_foregroundBlur"/></filter><filter id="master_svgq_0_69" filterUnits="objectBoundingBox" color-interpolation-filters="sRGB" x="-29" y="-19" width="107.1248779296875" height="107.1248779296875"><feFlood flood-opacity="0" result="BackgroundImageFix"/><feColorMatrix in="SourceAlpha" type="matrix" values="0 0 0 0 0 0 0 0 0 0 0 0 0 0 0 0 0 0 127 0"/><feOffset dy="1" dx="-1"/><feGaussianBlur stdDeviation="1"/><feColorMatrix type="matrix" values="0 0 0 0 0.2708333432674408 0 0 0 0 0.022631261497735977 0 0 0 0 0.019184023141860962 0 0 0 1 0"/><feBlend mode="normal" in2="BackgroundImageFix" result="effect1_dropShadow"/><feColorMatrix in="SourceAlpha" type="matrix" values="0 0 0 0 0 0 0 0 0 0 0 0 0 0 0 0 0 0 127 0"/><feOffset dy="4" dx="-4"/><feGaussianBlur stdDeviation="5"/><feColorMatrix type="matrix" values="0 0 0 0 0.3333333432674408 0 0 0 0 0.06805554032325745 0 0 0 0 0.10664136707782745 0 0 0 1 0"/><feBlend mode="normal" in2="effect1_dropShadow" result="effect2_dropShadow"/><feBlend mode="normal" in="SourceGraphic" in2="effect2_dropShadow" result="shape"/><feColorMatrix in="SourceAlpha" type="matrix" result="hardAlpha" values="0 0 0 0 0 0 0 0 0 0 0 0 0 0 0 0 0 0 127 0"/><feOffset dy="-7" dx="0"/><feGaussianBlur stdDeviation="4"/><feComposite in2="hardAlpha" operator="arithmetic" k2="-1" k3="1"/><feColorMatrix type="matrix" values="0 0 0 0 0.5666666626930237 0 0 0 0 0.12277776002883911 0 0 0 0 0.12277776002883911 0 0 0 0.25999999046325684 0"/><feBlend mode="normal" in2="shape" result="effect3_innerShadow"/><feColorMatrix in="SourceAlpha" type="matrix" result="hardAlpha" values="0 0 0 0 0 0 0 0 0 0 0 0 0 0 0 0 0 0 127 0"/><feOffset dy="0" dx="2.135063409805298"/><feGaussianBlur stdDeviation="2.135063409805298"/><feComposite in2="hardAlpha" operator="arithmetic" k2="-1" k3="1"/><feColorMatrix type="matrix" values="0 0 0 0 1 0 0 0 0 1 0 0 0 0 1 0 0 0 0.25 0"/><feBlend mode="normal" in2="effect3_innerShadow" result="effect4_innerShadow"/><feColorMatrix in="SourceAlpha" type="matrix" result="hardAlpha" values="0 0 0 0 0 0 0 0 0 0 0 0 0 0 0 0 0 0 127 0"/><feOffset dy="0" dx="11.74284839630127"/><feGaussianBlur stdDeviation="8.540253639221191"/><feComposite in2="hardAlpha" operator="arithmetic" k2="-1" k3="1"/><feColorMatrix type="matrix" values="0 0 0 0 0.5916666388511658 0 0 0 0 0.4634721875190735 0 0 0 0 0.49952688813209534 0 0 0 0.699999988079071 0"/><feBlend mode="normal" in2="effect4_innerShadow" result="effect5_innerShadow"/></filter><filter id="master_svgr_0_71" filterUnits="objectBoundingBox" color-interpolation-filters="sRGB" x="0" y="0" width="21.615625381469727" height="21.615625381469727"><feFlood flood-opacity="0" result="BackgroundImageFix"/><feBlend mode="normal" in="SourceGraphic" in2="BackgroundImageFix" result="shape"/><feColorMatrix in="SourceAlpha" type="matrix" result="hardAlpha" values="0 0 0 0 0 0 0 0 0 0 0 0 0 0 0 0 0 0 127 0"/><feOffset dy="1.067531704902649" dx="-1.067531704902649"/><feGaussianBlur stdDeviation="1.067531704902649"/><feComposite in2="hardAlpha" operator="arithmetic" k2="-1" k3="1"/><feColorMatrix type="matrix" values="0 0 0 0 1 0 0 0 0 1 0 0 0 0 1 0 0 0 0.5 0"/><feBlend mode="normal" in2="shape" result="effect1_innerShadow"/></filter><filter id="master_svgs_0_72" filterUnits="objectBoundingBox" color-interpolation-filters="sRGB" x="-10.67531681060791" y="-10.67531681060791" width="30.807469367980957" height="24.020902156829834"><feFlood flood-opacity="0" result="BackgroundImageFix"/><feBlend mode="normal" in="SourceGraphic" in2="BackgroundImageFix" result="shape"/><feGaussianBlur stdDeviation="2.6688292026519775" result="effect1_foregroundBlur"/></filter><filter id="master_svgt_0_73" filterUnits="objectBoundingBox" color-interpolation-filters="sRGB" x="-2.135063409805298" y="-2.135063409805298" width="10.838879108428955" height="5.6756672859191895"><feFlood flood-opacity="0" result="BackgroundImageFix"/><feBlend mode="normal" in="SourceGraphic" in2="BackgroundImageFix" result="shape"/><feGaussianBlur stdDeviation="0.5337658524513245" result="effect1_foregroundBlur"/></filter><filter id="master_svgu_0_76" filterUnits="objectBoundingBox" color-interpolation-filters="sRGB" x="-3" y="-1" width="223.9867706298828" height="26.701705932617188"><feFlood flood-opacity="0" result="BackgroundImageFix"/><feColorMatrix in="SourceAlpha" type="matrix" values="0 0 0 0 0 0 0 0 0 0 0 0 0 0 0 0 0 0 127 0"/><feOffset dy="1" dx="-1"/><feGaussianBlur stdDeviation="0.5"/><feColorMatrix type="matrix" values="0 0 0 0 0.42916667461395264 0 0 0 0 0.07793746143579483 0 0 0 0 0.07331597805023193 0 0 0 1 0"/><feBlend mode="normal" in2="BackgroundImageFix" result="effect1_dropShadow"/><feBlend mode="normal" in="SourceGraphic" in2="effect1_dropShadow" result="shape"/><feColorMatrix in="SourceAlpha" type="matrix" result="hardAlpha" values="0 0 0 0 0 0 0 0 0 0 0 0 0 0 0 0 0 0 127 0"/><feOffset dy="2" dx="0"/><feGaussianBlur stdDeviation="1"/><feComposite in2="hardAlpha" operator="arithmetic" k2="-1" k3="1"/><feColorMatrix type="matrix" values="0 0 0 0 1 0 0 0 0 1 0 0 0 0 1 0 0 0 0.2800000011920929 0"/><feBlend mode="normal" in2="shape" result="effect2_innerShadow"/></filter><filter id="master_svgv_0_79" filterUnits="objectBoundingBox" color-interpolation-filters="sRGB" x="0" y="0" width="55.20583724975586" height="120.40962219238281"><feFlood flood-opacity="0" result="BackgroundImageFix"/><feBlend mode="normal" in="SourceGraphic" in2="BackgroundImageFix" result="shape"/><feColorMatrix in="SourceAlpha" type="matrix" result="hardAlpha" values="0 0 0 0 0 0 0 0 0 0 0 0 0 0 0 0 0 0 127 0"/><feOffset dy="3" dx="-3"/><feGaussianBlur stdDeviation="6"/><feComposite in2="hardAlpha" operator="arithmetic" k2="-1" k3="1"/><feColorMatrix type="matrix" values="0 0 0 0 1 0 0 0 0 0.875 0 0 0 0 0.875 0 0 0 1 0"/><feBlend mode="normal" in2="shape" result="effect1_innerShadow"/><feColorMatrix in="SourceAlpha" type="matrix" result="hardAlpha" values="0 0 0 0 0 0 0 0 0 0 0 0 0 0 0 0 0 0 127 0"/><feOffset dy="-17" dx="23"/><feGaussianBlur stdDeviation="13.5"/><feComposite in2="hardAlpha" operator="arithmetic" k2="-1" k3="1"/><feColorMatrix type="matrix" values="0 0 0 0 0.6916666626930237 0 0 0 0 0.10663193464279175 0 0 0 0 0.11921331286430359 0 0 0 1 0"/><feBlend mode="normal" in2="effect1_innerShadow" result="effect2_innerShadow"/></filter><filter id="master_svgw_0_81" filterUnits="objectBoundingBox" color-interpolation-filters="sRGB" x="0" y="0" width="55.0395393371582" height="120.40962219238281"><feFlood flood-opacity="0" result="BackgroundImageFix"/><feBlend mode="normal" in="SourceGraphic" in2="BackgroundImageFix" result="shape"/><feColorMatrix in="SourceAlpha" type="matrix" result="hardAlpha" values="0 0 0 0 0 0 0 0 0 0 0 0 0 0 0 0 0 0 127 0"/><feOffset dy="3" dx="-3"/><feGaussianBlur stdDeviation="6"/><feComposite in2="hardAlpha" operator="arithmetic" k2="-1" k3="1"/><feColorMatrix type="matrix" values="0 0 0 0 1 0 0 0 0 0.875 0 0 0 0 0.875 0 0 0 1 0"/><feBlend mode="normal" in2="shape" result="effect1_innerShadow"/><feColorMatrix in="SourceAlpha" type="matrix" result="hardAlpha" values="0 0 0 0 0 0 0 0 0 0 0 0 0 0 0 0 0 0 127 0"/><feOffset dy="-17" dx="23"/><feGaussianBlur stdDeviation="13.5"/><feComposite in2="hardAlpha" operator="arithmetic" k2="-1" k3="1"/><feColorMatrix type="matrix" values="0 0 0 0 0.6916666626930237 0 0 0 0 0.10663193464279175 0 0 0 0 0.11921331286430359 0 0 0 1 0"/><feBlend mode="normal" in2="effect1_innerShadow" result="effect2_innerShadow"/></filter><mask id="master_svgx_0_81"><g style="mix-blend-mode:passthrough" filter="url(#master_svgw_0_81)"><path d="M323.8209881835937,344.2060986328125C331.6504881835938,316.3683986328125,298.56858818359376,264.2202986328125,281.04898818359374,241.6260986328125C277.90749818359376,267.2409986328125,277.66272818359374,298.5483986328125,270.5371731835937,337.3193986328125C267.80699818359375,352.1750986328125,275.4909981835938,351.0930986328125,278.51162818359376,348.5560986328125C278.14914818359375,352.9060986328125,314.03418818359376,379.0040986328125,323.8209881835937,344.2060986328125C323.8209881835937,344.2060986328125,323.8209881835937,344.2060986328125,323.8209881835937,344.2060986328125Z" fill="#FFFFFF" fill-opacity="1"/></g></mask><filter id="master_svgy_0_84" filterUnits="objectBoundingBox" color-interpolation-filters="sRGB" x="0" y="0" width="46.91282653808594" height="33.76130294799805"><feFlood flood-opacity="0" result="BackgroundImageFix"/><feBlend mode="normal" in="SourceGraphic" in2="BackgroundImageFix" result="shape"/><feColorMatrix in="SourceAlpha" type="matrix" result="hardAlpha" values="0 0 0 0 0 0 0 0 0 0 0 0 0 0 0 0 0 0 127 0"/><feOffset dy="-10" dx="5"/><feGaussianBlur stdDeviation="6.5"/><feComposite in2="hardAlpha" operator="arithmetic" k2="-1" k3="1"/><feColorMatrix type="matrix" values="0 0 0 0 0.7875000238418579 0 0 0 0 0.37379997968673706 0 0 0 0 0.14109373092651367 0 0 0 1 0"/><feBlend mode="normal" in2="shape" result="effect1_innerShadow"/></filter><filter id="master_svgz_0_87" filterUnits="objectBoundingBox" color-interpolation-filters="sRGB" x="-32" y="-32" width="88.63960266113281" height="162.25501251220703"><feFlood flood-opacity="0" result="BackgroundImageFix"/><feBlend mode="normal" in="SourceGraphic" in2="BackgroundImageFix" result="shape"/><feGaussianBlur stdDeviation="8" result="effect1_foregroundBlur"/></filter><filter id="master_svg10_0_89" filterUnits="objectBoundingBox" color-interpolation-filters="sRGB" x="-8" y="-8" width="34.52243995666504" height="119.68028259277344"><feFlood flood-opacity="0" result="BackgroundImageFix"/><feBlend mode="normal" in="SourceGraphic" in2="BackgroundImageFix" result="shape"/><feGaussianBlur stdDeviation="2" result="effect1_foregroundBlur"/></filter><filter id="master_svg11_0_91" filterUnits="objectBoundingBox" color-interpolation-filters="sRGB" x="-8" y="-8" width="27.54508399963379" height="97.04867553710938"><feFlood flood-opacity="0" result="BackgroundImageFix"/><feBlend mode="normal" in="SourceGraphic" in2="BackgroundImageFix" result="shape"/><feGaussianBlur stdDeviation="2" result="effect1_foregroundBlur"/></filter><mask id="master_svg12_0_94"><g style="mix-blend-mode:passthrough"><path d="M281.24182705078124,241.91388439453124C281.19832705078124,241.45680439453125,280.79822705078124,235.52551439453126,280.60362705078126,232.61700439453125C223.40682705078126,232.61700439453125,248.98314705078124,264.06970439453124,269.55782705078127,282.4912043945312C290.1325270507813,300.91280439453124,299.4810270507812,272.57960439453126,298.28482705078125,267.79470439453127C297.08862705078127,263.00990439453125,281.2962270507812,242.48522439453126,281.24182705078124,241.91388439453124C281.24182705078124,241.91388439453124,281.24182705078124,241.91388439453124,281.24182705078124,241.91388439453124Z" fill="#FFFFFF" fill-opacity="1"/></g></mask><filter id="master_svg13_0_96" filterUnits="objectBoundingBox" color-interpolation-filters="sRGB" x="-20" y="-20" width="66.98913192749023" height="83.32285690307617"><feFlood flood-opacity="0" result="BackgroundImageFix"/><feBlend mode="normal" in="SourceGraphic" in2="BackgroundImageFix" result="shape"/><feGaussianBlur stdDeviation="5" result="effect1_foregroundBlur"/></filter><filter id="master_svg14_0_100" filterUnits="objectBoundingBox" color-interpolation-filters="sRGB" x="-5" y="-3" width="87.80693054199219" height="87.80693054199219"><feFlood flood-opacity="0" result="BackgroundImageFix"/><feColorMatrix in="SourceAlpha" type="matrix" values="0 0 0 0 0 0 0 0 0 0 0 0 0 0 0 0 0 0 127 0"/><feOffset dy="1" dx="-1"/><feGaussianBlur stdDeviation="1"/><feColorMatrix type="matrix" values="0 0 0 0 0.5874999761581421 0 0 0 0 0.07970655709505081 0 0 0 0 0.07343751192092896 0 0 0 1 0"/><feBlend mode="normal" in2="BackgroundImageFix" result="effect1_dropShadow"/><feBlend mode="normal" in="SourceGraphic" in2="effect1_dropShadow" result="shape"/><feColorMatrix in="SourceAlpha" type="matrix" result="hardAlpha" values="0 0 0 0 0 0 0 0 0 0 0 0 0 0 0 0 0 0 127 0"/><feOffset dy="0" dx="2.135063409805298"/><feGaussianBlur stdDeviation="2.135063409805298"/><feComposite in2="hardAlpha" operator="arithmetic" k2="-1" k3="1"/><feColorMatrix type="matrix" values="0 0 0 0 1 0 0 0 0 1 0 0 0 0 1 0 0 0 0.25 0"/><feBlend mode="normal" in2="shape" result="effect2_innerShadow"/><feColorMatrix in="SourceAlpha" type="matrix" result="hardAlpha" values="0 0 0 0 0 0 0 0 0 0 0 0 0 0 0 0 0 0 127 0"/><feOffset dy="0" dx="11.74284839630127"/><feGaussianBlur stdDeviation="8.540253639221191"/><feComposite in2="hardAlpha" operator="arithmetic" k2="-1" k3="1"/><feColorMatrix type="matrix" values="0 0 0 0 0.8125 0 0 0 0 0.39206352829933167 0 0 0 0 0.2606770992279053 0 0 0 1 0"/><feBlend mode="normal" in2="effect2_innerShadow" result="effect3_innerShadow"/></filter><filter id="master_svg15_0_102" filterUnits="objectBoundingBox" color-interpolation-filters="sRGB" x="-18.810380935668945" y="-13.810380935668945" width="65.42964172363281" height="80.46850967407227"><feFlood flood-opacity="0" result="BackgroundImageFix"/><feColorMatrix in="SourceAlpha" type="matrix" values="0 0 0 0 0 0 0 0 0 0 0 0 0 0 0 0 0 0 127 0"/><feOffset dy="1" dx="0"/><feGaussianBlur stdDeviation="1"/><feColorMatrix type="matrix" values="0 0 0 0 0 0 0 0 0 0 0 0 0 0 0 0 0 0 0.25 0"/><feBlend mode="normal" in2="BackgroundImageFix" result="effect1_dropShadow"/><feColorMatrix in="SourceAlpha" type="matrix" values="0 0 0 0 0 0 0 0 0 0 0 0 0 0 0 0 0 0 127 0"/><feOffset dy="2" dx="-2"/><feGaussianBlur stdDeviation="3.2025952339172363"/><feColorMatrix type="matrix" values="0 0 0 0 0.27843138575553894 0 0 0 0 0.1921568363904953 0 0 0 0 0.09019607305526733 0 0 0 0.4000000059604645 0"/><feBlend mode="normal" in2="effect1_dropShadow" result="effect2_dropShadow"/><feBlend mode="normal" in="SourceGraphic" in2="effect2_dropShadow" result="shape"/><feColorMatrix in="SourceAlpha" type="matrix" result="hardAlpha" values="0 0 0 0 0 0 0 0 0 0 0 0 0 0 0 0 0 0 127 0"/><feOffset dy="-2" dx="0"/><feGaussianBlur stdDeviation="3"/><feComposite in2="hardAlpha" operator="arithmetic" k2="-1" k3="1"/><feColorMatrix type="matrix" values="0 0 0 0 0.7208333611488342 0 0 0 0 0.7208333611488342 0 0 0 0 0.7208333611488342 0 0 0 1 0"/><feBlend mode="normal" in2="shape" result="effect3_innerShadow"/><feColorMatrix in="SourceAlpha" type="matrix" result="hardAlpha" values="0 0 0 0 0 0 0 0 0 0 0 0 0 0 0 0 0 0 127 0"/><feOffset dy="-2" dx="0"/><feGaussianBlur stdDeviation="2.5"/><feComposite in2="hardAlpha" operator="arithmetic" k2="-1" k3="1"/><feColorMatrix type="matrix" values="0 0 0 0 0.8583333492279053 0 0 0 0 0.8583333492279053 0 0 0 0 0.8583333492279053 0 0 0 1 0"/><feBlend mode="normal" in2="effect3_innerShadow" result="effect4_innerShadow"/></filter></defs><g style="mix-blend-mode:passthrough"><g style="mix-blend-mode:passthrough"><g style="mix-blend-mode:passthrough" filter="url(#master_svg0_0_8)"><ellipse cx="188.50006103515625" cy="401.7472562789917" rx="136.5" ry="7.5" fill="#B76A69" fill-opacity="1"/></g><g style="mix-blend-mode:passthrough" filter="url(#master_svg1_0_11)"><path d="M263.1422842407227,398.41822466659545C263.1422842407227,402.68082466659547,266.87728424072264,405.19182466659544,199.39638424072265,405.19182466659544C137.56488424072265,405.19182466659544,120.30228424072266,397.4044546665955,120.30228424072266,395.1481046665955C120.30228424072266,388.2659246665955,124.63149424072266,390.2472636665955,213.34068424072265,390.2472606665955C274.65328424072266,390.2472606665955,263.1422842407227,394.1555846665955,263.1422842407227,398.41822466659545C263.1422842407227,398.41822466659545,263.1422842407227,398.41822466659545,263.1422842407227,398.41822466659545Z" fill="#A06766" fill-opacity="1"/></g><g style="mix-blend-mode:passthrough" transform="matrix(0.981826663017273,0.1897798776626587,-0.1897798776626587,0.981826663017273,75.3305095622527,-19.306023702276434)" filter="url(#master_svg2_0_14)"><path d="M179.62279086914063,384.0180506015625C179.62279086914063,384.8278816015625,173.1555908691406,391.3486816015625,157.19729086914063,393.1815716015625C138.46940798444064,395.0144916015625,138.46939086914062,392.1585016015625,138.46939086914062,391.3486716015625C138.46939086914062,390.5388516015625,138.69131786914062,390.5107116015625,160.83409086914062,386.4811716015625C175.7626908691406,383.7644690015625,179.62279086914063,383.2082256015625,179.62279086914063,384.0180506015625C179.62279086914063,384.0180506015625,179.62279086914063,384.0180506015625,179.62279086914063,384.0180506015625Z" fill="#3C0102" fill-opacity="1"/></g><g style="mix-blend-mode:passthrough" transform="matrix(0.981826663017273,0.1897798776626587,-0.1897798776626587,0.981826663017273,77.03082374917759,-34.571895431716484)" filter="url(#master_svg3_0_16)"><path d="M257.76960341796877,389.1015360849762C257.76960341796877,390.6125660849762,255.45290341796874,389.4936960849762,248.79210341796875,390.6211960849762C223.81748341796876,399.7543460849762,219.02851065128874,393.8399960849762,219.02851065128874,392.3289660849762C219.02851065128874,390.8179460849762,218.91687741796875,388.3684460849762,246.43010341796875,385.3645680849762C262.62650341796876,383.5962560849762,257.76960341796877,387.5905160849762,257.76960341796877,389.1015360849762C257.76960341796877,389.1015360849762,257.76960341796877,389.1015360849762,257.76960341796877,389.1015360849762Z" fill="#521515" fill-opacity="1"/></g></g><g style="mix-blend-mode:passthrough" filter="url(#master_svg4_0_19)"><path d="M107.88125703125,254.70567724609376C-32.49274296875,220.14547724609375,58.63915703125,148.61740724609376,59.24595703125,143.15667724609375C144.66095703125,169.83507724609376,258.16195703125004,229.06327724609375,278.82695703125,216.74187724609374C279.24895703125003,211.74627724609377,280.34595703125,210.13607724609375,281.36195703125,243.65967724609374C282.63195703125,285.56567724609374,266.75895703125,364.93067724609375,266.12395703125003,375.08967724609374C265.48895703125004,385.24867724609373,236.91695703125,404.93067724609375,214.05995703125,384.61367724609374C191.20295703125,364.29567724609376,191.20295703125,383.34367724609376,172.15495703125,390.32767724609374C153.10695703125,397.3116772460937,139.18595703124998,394.4946772460937,123.41095703125,370.22467724609373C107.63555703125,345.95467724609375,128.29865703125,259.7326772460938,107.88125703125,254.70567724609376C107.88125703125,254.70567724609376,107.88125703125,254.70567724609376,107.88125703125,254.70567724609376Z" fill="#D3312F" fill-opacity="1"/></g><g style="mix-blend-mode:passthrough" mask="url(#master_svg6_0_21)"><g style="mix-blend-mode:passthrough" filter="url(#master_svg7_0_24)"><path d="M186.49370380859375,383.4212632421875C153.72610380859373,396.1328732421875,129.76232380859375,382.36196324218747,121.87640380859375,373.8875732421875C121.87640380859375,373.8875732421875,123.64191380859376,397.8983732421875,123.64191380859376,397.8983732421875C123.64191380859376,397.8983732421875,269.11940380859374,397.8983732421875,269.11940380859374,397.8983732421875C269.11940380859374,397.8983732421875,269.11940380859374,377.0654932421875,269.11940380859374,377.0654932421875C245.67340380859375,393.7317732421875,219.80280380859375,388.2469732421875,209.79830380859374,383.4212632421875C209.79830380859374,383.4212632421875,186.49370380859375,383.4212632421875,186.49370380859375,383.4212632421875C186.49370380859375,383.4212632421875,186.49370380859375,383.4212632421875,186.49370380859375,383.4212632421875Z" fill="#881718" fill-opacity="1"/></g><g style="mix-blend-mode:passthrough" filter="url(#master_svg8_0_26)"><path d="M126.7214629272461,255.8199334033203C124.95966292724609,242.37945340332033,105.7587729272461,246.99080240332032,96.3785629272461,250.9765334033203C96.3785629272461,250.9765334033203,105.92188292724609,264.5986134033203,105.92188292724609,264.5986134033203C113.5891629272461,267.2726134033203,128.4832629272461,269.2604134033203,126.7214629272461,255.8199334033203C126.7214629272461,255.8199334033203,126.7214629272461,255.8199334033203,126.7214629272461,255.8199334033203Z" fill="#991E1D" fill-opacity="1"/></g><g style="mix-blend-mode:passthrough" filter="url(#master_svg9_0_29)"><path d="M113.49626494140625,252.0527954101776C108.47545494140626,252.05278736754624,104.35112494140625,254.32411541015625,102.91656494140625,255.45977541015625C104.11202494140625,258.50815541015623,107.90160494140625,263.88769541015625,113.49626494140625,261.0186054101562C120.48966494140625,257.4322854101562,119.77226494140625,252.05280546345625,113.49626494140625,252.0527954101776C113.49626494140625,252.0527954101776,113.49626494140625,252.0527954101776,113.49626494140625,252.0527954101776Z" fill="#871514" fill-opacity="1"/></g><g style="opacity:0.4000000059604645;mix-blend-mode:passthrough" filter="url(#master_svga_0_32)"><path d="M118.79819777832031,234.4965054626465C118.81639777832032,234.4521054626465,118.83429777832032,234.4038054626465,118.8517977783203,234.35130546264648C118.8517977783203,234.35130546264648,86.13459777832031,207.30950546264648,86.13459777832031,207.30950546264648C86.13459777832031,207.30950546264648,153.9699977783203,217.41280546264647,153.9699977783203,217.41280546264647C185.80769777832032,214.03600546264647,255.34459777832032,208.58500546264648,278.7885977783203,213.79481546264648C308.0935977783203,220.3071054626465,277.1895977783203,227.13620546264647,271.4205977783203,229.7137054626465C262.2455977783203,233.81350546264648,273.14759777832035,243.82360546264647,261.93159777832034,249.9741054626465C250.7165977783203,256.1245054626465,257.0075977783203,231.1618054626465,236.3665977783203,234.35130546264648C216.92159777832032,237.3560054626465,225.6045977783203,257.2099054626465,216.92159777832032,255.0392054626465C208.2385977783203,252.86840546264648,207.15359777832032,249.9741054626465,201.7265977783203,255.0392054626465C196.29959777832033,260.1043054626465,190.51059777832032,269.51090546264646,190.8725977783203,257.2099054626465C191.2345977783203,244.9090054626465,187.6165977783203,229.7137054626465,178.20999777832031,245.27080546264648C168.80339777832032,260.82790546264647,160.2233977783203,256.2144054626465,157.9496977783203,249.9741054626465C150.56749777832033,229.7137054626465,146.2260977783203,253.07060546264648,131.53889777832032,241.65280546264648C123.16279777832031,235.14130546264647,119.89829777832031,234.3139054626465,118.79819777832031,234.4965054626465C117.92299777832031,234.6418054626465,118.4176977783203,235.4263054626465,118.79819777832031,234.4965054626465C118.79819777832031,234.4965054626465,118.79819777832031,234.4965054626465,118.79819777832031,234.4965054626465Z" fill="#7C1817" fill-opacity="1"/></g><g style="opacity:0.4000000059604645;mix-blend-mode:passthrough" filter="url(#master_svgb_0_34)"><path d="M131.0619311706543,236.0755532775879C97.6251311706543,230.46325327758788,70.2641511706543,199.9820832775879,80.3445211706543,197.3419532775879C80.3445211706543,197.3419532775879,273.5932311706543,222.59265327758789,273.5932311706543,222.59265327758789C273.8972311706543,224.2043532775879,274.3212311706543,227.4277532775879,273.5932311706543,227.4277532775879C272.6842311706543,227.4277532775879,267.0972311706543,236.1039532775879,263.1552311706543,237.6197532775879C259.21423117065433,239.1356532775879,252.6962311706543,237.6197532775879,246.3302311706543,237.6197532775879C239.9632311706543,237.6197532775879,235.0912311706543,240.17655327758789,229.6342311706543,242.5613532775879C224.1772311706543,244.94615327758788,216.5732311706543,238.6013532775879,212.5972311706543,244.41445327758788C208.0892311706543,251.0055532775879,195.5492311706543,253.81435327758788,195.24023117065428,247.94625327758789C194.9312311706543,242.0781532775879,172.7562311706543,234.22245327758787,169.05003117065428,237.6197532775879C165.3439311706543,241.01705327758788,161.0200311706543,245.3409532775879,158.8581311706543,242.5613532775879C156.6961311706543,239.7816532775879,153.6077311706543,236.0755532775879,152.0634311706543,234.22245327758787C150.51923117065428,232.3693532775879,139.2913311706543,237.4568532775879,131.0619311706543,236.0755532775879C131.0619311706543,236.0755532775879,131.0619311706543,236.0755532775879,131.0619311706543,236.0755532775879Z" fill="#631817" fill-opacity="1"/></g><g style="mix-blend-mode:passthrough" filter="url(#master_svgc_0_37)"><path d="M261.14247856445314,281.2657885620117C263.4213785644531,247.84241856201172,277.4953785644531,242.7571585620117,281.08247856445314,240.43608856201172C280.4494785644531,266.3898885620117,277.98077856445315,321.9688885620117,273.16987856445314,336.6548885620117C267.1561785644531,355.01208856201174,245.95008856445313,362.2920885620117,247.84914856445312,358.81008856201174C249.74819856445313,355.32908856201175,258.29397856445314,323.0450885620117,261.14247856445314,281.2657885620117C261.14247856445314,281.2657885620117,261.14247856445314,281.2657885620117,261.14247856445314,281.2657885620117Z" fill="#C12422" fill-opacity="1"/></g><g style="mix-blend-mode:passthrough" filter="url(#master_svgd_0_39)"><path d="M276.6633326660156,252.30467159423827C277.34023266601565,242.62900159423828,287.56833266601564,235.56149159423828,287.56833266601564,243.70359159423828C285.8064326660156,282.7435715942383,276.22073266601564,343.92057159423825,272.3277026660156,346.0445715942383C267.46138266601565,348.69957159423825,270.3115426660156,353.4965715942383,265.02827266601565,346.0445715942383C259.2258526660156,337.8596715942383,268.5136126660156,332.4873715942383,269.35962266601564,325.51977159423825C270.2056326660156,318.5522715942383,269.48050266601564,310.5922715942383,269.35964266601565,302.44157159423827C269.23878266601565,294.2908715942383,273.5363326660156,291.3826715942383,272.3277026660156,282.0488715942383C271.11912266601564,272.71497159423825,275.8173326660156,264.39927159423826,276.6633326660156,252.30467159423827C276.6633326660156,252.30467159423827,276.6633326660156,252.30467159423827,276.6633326660156,252.30467159423827Z" fill="#721011" fill-opacity="1"/></g><g style="mix-blend-mode:passthrough" filter="url(#master_svge_0_41)"><path d="M68.75622215454102,203.99903427124025C64.65794215454102,200.75183427124023,68.75615215454101,189.23332427124024,76.05967215454102,185.26403427124023C84.84170215454101,185.26403427124023,116.313702154541,217.51043427124023,109.23940215454101,218.36493427124023C102.16500215454101,219.21943427124023,95.48340215454101,217.65663427124025,89.87270215454102,211.46133427124022C84.26200215454102,205.26593427124024,73.87906215454102,208.05803427124025,68.75622215454102,203.99903427124025C68.75622215454102,203.99903427124025,68.75622215454102,203.99903427124025,68.75622215454102,203.99903427124025Z" fill="#881615" fill-opacity="1"/></g></g><g style="mix-blend-mode:passthrough"><g style="mix-blend-mode:passthrough" filter="url(#master_svgf_0_45)"><path d="M152.10311611328126,240.1431547607422C113.87921611328125,230.2176547607422,105.79306611328126,219.11185476074218,107.93228711328125,214.6472547607422C165.41321611328124,206.36928476074218,280.49551611328127,193.5465447607422,283.62051611328127,213.4136547607422C286.74551611328127,233.2808547607422,202.60821611328123,253.2577547607422,152.10311611328126,240.1431547607422C152.10311611328126,240.1431547607422,152.10311611328126,240.1431547607422,152.10311611328126,240.1431547607422Z" fill="#6C1A19" fill-opacity="1"/></g><g style="mix-blend-mode:passthrough" filter="url(#master_svgg_0_48)"><path d="M82.504633984375,43.3096C83.621633984375,38.2835,104.84293398437501,23.9963,115.313933984375,17.481C218.628333984375,-23.7051,291.473333984375,20.3513,298.208333984375,23.7637C306.441333984375,27.9349,303.094333984375,43.3096,324.036333984375,50.2903C344.978333984375,57.271,348.469333984375,79.6092,354.751333984375,100.551C361.034333984375,121.493,349.167333984375,186.414,280.75633398437503,222.713C212.345333984375,259.013,125.086833984375,233.883,109.729333984375,222.713C94.371833984375,211.544,55.978033984375,183.622,44.808883984375,139.643C33.639763984375,95.6648,55.279933984375,65.6478,59.468333984375,62.8555C63.656733984374995,60.0633,81.108533984375,49.5922,82.504633984375,43.3096C82.504633984375,43.3096,82.504633984375,43.3096,82.504633984375,43.3096Z" fill="#6ADEDF" fill-opacity="1"/></g><g style="opacity:0.5;mix-blend-mode:passthrough" mask="url(#master_svgi_0_50)"><g style="mix-blend-mode:passthrough" filter="url(#master_svgj_0_52)"><path d="M64.35987386230468,177.57040874023437C55.72779386230469,171.60217874023436,88.51443386230468,218.62460874023438,93.84073386230469,222.3844087402344C122.5088338623047,259.5119087402344,266.6983338623047,240.09870874023437,277.5073338623047,237.74890874023436C286.1553338623047,235.8690087402344,356.1403338623047,155.18840874023437,334.6153338623047,168.31312874023436C261.5283338623047,212.87820874023438,87.9745338623047,193.89750874023437,64.35987386230468,177.57040874023437C64.35987386230468,177.57040874023437,64.35987386230468,177.57040874023437,64.35987386230468,177.57040874023437Z" fill="url(#master_svgk__05)" fill-opacity="1"/></g></g><g style="mix-blend-mode:passthrough" filter="url(#master_svgl_0_54)"><path d="M70.40060364562989,79.326419921875C83.76133364562989,58.638919921875,101.46943364562989,52.776819921875,108.47423364562988,50.171019921875C143.9276336456299,36.982109921875,283.1275336456299,25.155319921874998,318.8445336456299,62.362019921875C346.0495336456299,90.701119921875,337.05253364562986,141.838919921875,303.1125336456299,160.694919921875C269.1715336456299,179.550919921875,141.3264336456299,180.385919921875,99.46943364562989,168.775919921875C66.23289364562989,159.556919921875,53.699733645629884,105.185819921875,70.40060364562989,79.326419921875C70.40060364562989,79.326419921875,70.40060364562989,79.326419921875,70.40060364562989,79.326419921875Z" fill="#D3312F" fill-opacity="1"/></g></g><g style="mix-blend-mode:passthrough"><g style="mix-blend-mode:passthrough"><g style="mix-blend-mode:passthrough" filter="url(#master_svgm_0_59)"><ellipse cx="119.981689453125" cy="119.6234130859375" rx="33.56243896484375" ry="33.56243896484375" fill="#FFFFFF" fill-opacity="1"/></g><g style="mix-blend-mode:passthrough" transform="matrix(0.2588190734386444,0.9659258127212524,-0.9659258127212524,0.2588190734386444,197.354006565276,-44.423563305430434)"><g style="mix-blend-mode:passthrough" filter="url(#master_svgn_0_63)"><ellipse cx="138.4317750930786" cy="117.19440937042236" rx="10.807812690734863" ry="10.807812690734863" fill="#292929" fill-opacity="1"/></g><g style="mix-blend-mode:passthrough" transform="matrix(0.775951087474823,-0.6307930946350098,0.6307930946350098,0.775951087474823,-40.404764407033724,113.64895929384204)" filter="url(#master_svgo_0_65)"><ellipse cx="144.51113748550415" cy="115.03791785240173" rx="4.728417873382568" ry="1.3351342678070068" fill="#FFFFFF" fill-opacity="1"/></g><g style="mix-blend-mode:passthrough" transform="matrix(0.775951087474823,-0.6307930946350098,0.6307930946350098,0.775951087474823,-39.51194967294964,115.122832294674)" filter="url(#master_svgp_0_67)"><ellipse cx="145.58829307556152" cy="113.8856635093689" rx="3.2843761444091797" ry="0.7027702331542969" fill="#FFFFFF" fill-opacity="1"/></g></g></g><g style="mix-blend-mode:passthrough"><g style="mix-blend-mode:passthrough" filter="url(#master_svgq_0_69)"><ellipse cx="281.4345703125" cy="119.6234130859375" rx="33.56243896484375" ry="33.56243896484375" fill="#FFFFFF" fill-opacity="1"/></g><g style="mix-blend-mode:passthrough" transform="matrix(0.2588190734386444,0.9659258127212524,-0.9659258127212524,0.2588190734386444,317.0198023966277,-200.37506846570977)"><g style="mix-blend-mode:passthrough" filter="url(#master_svgr_0_71)"><ellipse cx="299.8846559524536" cy="117.19440937042236" rx="10.807812690734863" ry="10.807812690734863" fill="#292929" fill-opacity="1"/></g><g style="mix-blend-mode:passthrough" transform="matrix(0.775951087474823,-0.6307930946350098,0.6307930946350098,0.775951087474823,-4.2314220264337905,215.49232164886473)" filter="url(#master_svgs_0_72)"><ellipse cx="305.96401834487915" cy="115.03791785240173" rx="4.728417873382568" ry="1.3351342678070068" fill="#FFFFFF" fill-opacity="1"/></g><g style="mix-blend-mode:passthrough" transform="matrix(0.775951087474823,-0.6307930946350098,0.6307930946350098,0.775951087474823,-3.3386072923497068,216.9661946496967)" filter="url(#master_svgt_0_73)"><ellipse cx="307.0411739349365" cy="113.8856635093689" rx="3.2843761444091797" ry="0.7027702331542969" fill="#FFFFFF" fill-opacity="1"/></g></g></g><g style="mix-blend-mode:passthrough" filter="url(#master_svgu_0_76)"><path d="M89.80322131962585,81.7414529296875C86.69387331962585,78.1879529296875,92.74317331962585,76.0728529296875,95.96197331962586,75.2092529296875C103.55032331962586,73.1733429296875,120.95232331962586,68.4156429296875,128.94792331962586,65.0841729296875C138.94232331962587,60.9198429296875,138.66462331962586,65.0841829296875,133.66742331962587,69.24851292968751C128.67022331962585,73.4128529296875,93.68990331962586,86.1834529296875,89.80322131962585,81.7414529296875C89.80322131962585,81.7414529296875,89.80322131962585,81.7414529296875,89.80322131962585,81.7414529296875ZM264.38212331962586,65.4491429296875C266.3711233196259,63.6261879296875,274.6651233196259,66.8070229296875,278.72112331962586,68.5958529296875C282.77712331962584,70.3846929296875,308.5061233196259,77.6712529296875,308.92112331962585,83.8858529296875C309.33512331962584,90.10045292968749,287.3761233196259,81.3999529296875,277.22612331962586,77.6712529296875C267.07512331962585,73.9424529296875,261.89712331962585,67.7278329296875,264.38212331962586,65.4491429296875C264.38212331962586,65.4491429296875,264.38212331962586,65.4491429296875,264.38212331962586,65.4491429296875Z" fill="#222222" fill-opacity="1"/></g></g><g style="mix-blend-mode:passthrough"><g style="mix-blend-mode:passthrough" filter="url(#master_svgv_0_79)"><path d="M323.82115048828126,344.2060986328125C331.65065048828126,316.3683986328125,298.56875048828124,264.2202986328125,281.04915048828127,241.6260986328125C277.90766048828124,267.2409986328125,277.05611048828126,307.2511986328125,270.53734048828125,337.3193986328125C267.3032904882813,352.2370986328125,275.4911704882812,351.0930986328125,278.51179048828124,348.5560986328125C278.14932048828126,352.9060986328125,314.03435048828123,379.0040986328125,323.82115048828126,344.2060986328125C323.82115048828126,344.2060986328125,323.82115048828126,344.2060986328125,323.82115048828126,344.2060986328125Z" fill="#D3312F" fill-opacity="1"/></g><g style="mix-blend-mode:passthrough" mask="url(#master_svgx_0_81)"><g style="mix-blend-mode:passthrough" filter="url(#master_svgy_0_84)"><path d="M282.8549961550903,345.9163166870117C299.03482615509034,346.8681366870117,297.71962615509034,338.4849166870117,302.8024261550903,338.4849166870117C309.79382615509036,338.4849166870117,307.62492615509035,347.9311566870117,321.96752615509035,345.9163166870117C327.00272615509033,345.2089766870117,325.0965261550903,351.7831166870117,321.96752615509035,366.2548166870117C318.83852615509034,380.7264166870117,288.72192615509033,365.0814166870117,282.8549961550903,359.99681668701174C276.9880961550903,354.9121166870117,276.2059061550903,345.52516668701173,282.8549961550903,345.9163166870117C282.8549961550903,345.9163166870117,282.8549961550903,345.9163166870117,282.8549961550903,345.9163166870117Z" fill="#E28C52" fill-opacity="1"/></g><g style="mix-blend-mode:passthrough" filter="url(#master_svgz_0_87)"><path d="M279.3888721252441,264.50743536872864C278.52117212524416,240.79204536872865,274.4481721252441,242.81656536872865,272.52007212524416,246.79324536872863C270.5542621252441,249.13630536872864,259.5054521252441,331.0263353687286,261.67454812524414,338.25663536872867C263.8436421252441,345.48723536872865,288.06517212524415,342.9563353687286,285.89607212524413,336.08753536872865C283.7269721252441,329.2188353687286,280.47337212524417,294.1517353687286,279.3888721252441,264.50743536872864C279.3888721252441,264.50743536872864,279.3888721252441,264.50743536872864,279.3888721252441,264.50743536872864Z" fill="#981C1D" fill-opacity="1"/></g><g style="mix-blend-mode:passthrough" filter="url(#master_svg10_0_89)"><path d="M285.50048317565916,268.84217369189264C285.3151831756592,263.28327369189265,282.95268317565916,248.76831369189262,281.79458317565917,242.20571669189263C271.5397831756592,234.43158369189263,262.8961831756592,333.11007369189264,269.0333131756592,340.74637369189264C276.1488231756592,349.5997736918926,283.8259831756592,343.79577369189263,281.9534831756592,340.74637369189264C279.1867831756592,336.2412736918926,285.73208317565917,275.79077369189264,285.50048317565916,268.84217369189264C285.50048317565916,268.84217369189264,285.50048317565916,268.84217369189264,285.50048317565916,268.84217369189264Z" fill="#9F0F0E" fill-opacity="1"/></g><g style="mix-blend-mode:passthrough" filter="url(#master_svg11_0_91)"><path d="M281.2551505031824,268.68388227996826C280.9856505031824,265.1807922799683,279.7954505031824,258.9155222799683,279.2340005031824,256.22078227996826C275.9778605031824,282.49438227996825,269.5329715031824,335.41198227996824,269.8024435331824,336.89408227996825C270.1392845031824,338.74668227996824,274.0129505031824,333.35718227996824,274.3497905031824,329.1466822799683C274.6866305031824,324.93618227996825,277.8866605031824,317.3572822799683,277.7182405031824,314.15738227996826C277.5498205031824,310.9573822799683,277.5498205031824,297.8205822799683,279.2340005031824,294.78898227996825C280.9181505031824,291.75748227996826,281.59195050318243,273.06278227996825,281.2551505031824,268.68388227996826C281.2551505031824,268.68388227996826,281.2551505031824,268.68388227996826,281.2551505031824,268.68388227996826Z" fill="#801616" fill-opacity="1"/></g></g><g style="mix-blend-mode:passthrough" mask="url(#master_svg12_0_94)"><g style="mix-blend-mode:passthrough" filter="url(#master_svg13_0_96)"><path d="M289.53012245788574,241.2378264202118C284.39032245788576,241.2378264202118,286.87992245788575,240.5427964202118,286.6853224578857,237.6342864202118C263.55375245788576,231.24016642021178,257.6035024578857,255.9617264202118,278.17822245788574,274.38322642021177C298.75292245788575,292.8048264202118,291.6237224578857,259.8136264202118,290.42752245788574,255.0287264202118C289.23132245788577,250.24392642021178,295.58152245788574,241.2378264202118,289.53012245788574,241.2378264202118C289.53012245788574,241.2378264202118,289.53012245788574,241.2378264202118,289.53012245788574,241.2378264202118Z" fill="#CB2D2B" fill-opacity="1"/></g></g></g><g style="mix-blend-mode:passthrough"><g style="mix-blend-mode:passthrough" filter="url(#master_svg14_0_100)"><ellipse cx="200.93331146240234" cy="291.4840316772461" rx="39.903465270996094" ry="39.903465270996094" fill="#F68663" fill-opacity="1"/></g><g style="mix-blend-mode:passthrough" filter="url(#master_svg15_0_102)"><path d="M190.2403299279785,315.18810238952636C180.7908299279785,314.55910238952634,186.30303992797852,281.9034023895264,190.2403299279785,265.6541923895264C192.0625099279785,257.39854238952637,198.90236992797853,260.9366733895264,198.90236992797853,265.6541923895264C198.90236992797853,275.92250238952636,194.9650799279785,294.74550238952634,196.93376992797852,307.71870238952636C225.6759699279785,307.71870238952636,222.42706992797852,303.94580238952636,224.78946992797853,311.8083023895264C225.97056992797852,315.73950238952636,202.05216992797853,315.9743023895264,190.2403299279785,315.18810238952636C190.2403299279785,315.18810238952636,190.2403299279785,315.18810238952636,190.2403299279785,315.18810238952636Z" fill="#FFFFFF" fill-opacity="1"/></g></g></g></svg>