<svg xmlns="http://www.w3.org/2000/svg" xmlns:xlink="http://www.w3.org/1999/xlink" fill="none" version="1.1" width="103" height="103" viewBox="0 0 103 103"><g style="mix-blend-mode:passthrough"><g style="mix-blend-mode:passthrough"><rect x="0" y="0" width="103" height="103" rx="20" fill="#EEF5F6" fill-opacity="1"/><rect x="1.5" y="1.5" width="100" height="100" rx="18.5" fill-opacity="0" stroke-opacity="1" stroke="#000000" fill="none" stroke-width="3"/></g><g style="mix-blend-mode:passthrough"><g style="mix-blend-mode:passthrough"><path d="M35,50.499999046325684C34.171573,50.499999046325684,33.5,51.171572046325686,33.5,51.999999046325684C33.5,52.82842904632568,34.171573,53.499999046325684,35,53.499999046325684C35,53.499999046325684,35,50.499999046325684,35,50.499999046325684C35,50.499999046325684,35,50.499999046325684,35,50.499999046325684ZM67,53.499999046325684C67.8284,53.499999046325684,68.5,52.82842904632568,68.5,51.999999046325684C68.5,51.171572046325686,67.8284,50.499999046325684,67,50.499999046325684C67,50.499999046325684,67,53.499999046325684,67,53.499999046325684C67,53.499999046325684,67,53.499999046325684,67,53.499999046325684ZM35,53.499999046325684C35,53.499999046325684,67,53.499999046325684,67,53.499999046325684C67,53.499999046325684,67,50.499999046325684,67,50.499999046325684C67,50.499999046325684,35,50.499999046325684,35,50.499999046325684C35,50.499999046325684,35,53.499999046325684,35,53.499999046325684C35,53.499999046325684,35,53.499999046325684,35,53.499999046325684Z" fill="#000000" fill-opacity="1"/></g><g style="mix-blend-mode:passthrough"><path d="M54.060658092651366,36.93933818530274C53.474878092651366,36.35354918530273,52.525128092651364,36.35354918530273,51.93934009265137,36.93933818530274C51.353551092651365,37.52512618530273,51.353551092651365,38.47487618530273,51.93934009265137,39.06065618530273C51.93934009265137,39.06065618530273,54.060658092651366,36.93933818530274,54.060658092651366,36.93933818530274C54.060658092651366,36.93933818530274,54.060658092651366,36.93933818530274,54.060658092651366,36.93933818530274ZM66.99999809265137,51.999996185302734C66.99999809265137,51.999996185302734,68.06069809265136,53.06069618530273,68.06069809265136,53.06069618530273C68.64639809265137,52.47489618530273,68.64639809265137,51.525096185302736,68.06069809265136,50.93929618530274C68.06069809265136,50.93929618530274,66.99999809265137,51.999996185302734,66.99999809265137,51.999996185302734C66.99999809265137,51.999996185302734,66.99999809265137,51.999996185302734,66.99999809265137,51.999996185302734ZM51.93934009265137,64.93929618530274C51.353551092651365,65.52509618530273,51.353551092651365,66.47489618530274,51.93934009265137,67.06069618530273C52.525128092651364,67.64639618530273,53.474878092651366,67.64639618530273,54.060658092651366,67.06069618530273C54.060658092651366,67.06069618530273,51.93934009265137,64.93929618530274,51.93934009265137,64.93929618530274C51.93934009265137,64.93929618530274,51.93934009265137,64.93929618530274,51.93934009265137,64.93929618530274ZM51.93934009265137,39.06065618530273C51.93934009265137,39.06065618530273,65.93929809265137,53.06069618530273,65.93929809265137,53.06069618530273C65.93929809265137,53.06069618530273,68.06069809265136,50.93929618530274,68.06069809265136,50.93929618530274C68.06069809265136,50.93929618530274,54.060658092651366,36.93933818530274,54.060658092651366,36.93933818530274C54.060658092651366,36.93933818530274,51.93934009265137,39.06065618530273,51.93934009265137,39.06065618530273C51.93934009265137,39.06065618530273,51.93934009265137,39.06065618530273,51.93934009265137,39.06065618530273ZM65.93929809265137,50.93929618530274C65.93929809265137,50.93929618530274,51.93934009265137,64.93929618530274,51.93934009265137,64.93929618530274C51.93934009265137,64.93929618530274,54.060658092651366,67.06069618530273,54.060658092651366,67.06069618530273C54.060658092651366,67.06069618530273,68.06069809265136,53.06069618530273,68.06069809265136,53.06069618530273C68.06069809265136,53.06069618530273,65.93929809265137,50.93929618530274,65.93929809265137,50.93929618530274C65.93929809265137,50.93929618530274,65.93929809265137,50.93929618530274,65.93929809265137,50.93929618530274Z" fill="#000000" fill-opacity="1"/></g></g></g></svg>